<svg width="40" height="28" viewBox="0 0 40 28" fill="none" xmlns="http://www.w3.org/2000/svg">
<path d="M22 0H4C1.79086 0 0 1.79086 0 4V24C0 26.2091 1.79086 28 4 28H22C24.2091 28 26 26.2091 26 24V4C26 1.79086 24.2091 0 22 0Z" fill="white"/>
<path d="M28.9923 8.41957L36.9923 3.75291C37.2962 3.57564 37.6414 3.48166 37.9933 3.48048C38.3451 3.4793 38.691 3.57094 38.9961 3.74617C39.3012 3.92139 39.5546 4.17399 39.7309 4.47848C39.9072 4.78297 40 5.12857 40 5.48039V22.5164C40 22.8682 39.9072 23.2138 39.7309 23.5183C39.5547 23.8228 39.3012 24.0754 38.9961 24.2507C38.691 24.4259 38.3451 24.5176 37.9933 24.5164C37.6415 24.5152 37.2962 24.4212 36.9923 24.2439L28.9923 19.5773C28.6903 19.4012 28.4398 19.1489 28.2657 18.8458C28.0916 18.5427 28 18.1992 28 17.8496V10.1471C28 9.79757 28.0916 9.45412 28.2657 9.15101C28.4398 8.84789 28.6903 8.5957 28.9923 8.41957Z" fill="white"/>
</svg>
