<svg width="40" height="26" viewBox="0 0 40 26" fill="none" xmlns="http://www.w3.org/2000/svg">
<path d="M33.223 3.74389C33.0488 3.71201 32.873 3.68781 32.6962 3.66863C32.7593 1.97789 32.6907 0.940844 32.6852 0.863228C32.6512 0.376281 32.2512 -0.00147127 31.7698 4.30809e-06H0.951078C0.469976 -0.00147127 0.0696879 0.376281 0.0356765 0.863228C0.0284091 1.01049 -0.199496 4.42118 0.595847 9.18942C1.32811 13.5967 3.12345 20.0294 7.48243 25.6459C7.65598 25.8699 7.92138 26.0003 8.2019 26H24.5219C24.8024 26 25.0669 25.8693 25.2402 25.6459C26.5172 23.9932 27.6306 22.2172 28.5637 20.3426H31.7924C36.0526 20.3254 39.597 17.0145 39.9683 12.7067C40.3395 8.39851 37.4151 4.51356 33.223 3.74566V3.74389ZM31.9273 17.5375H29.8218C30.8823 14.8466 31.6549 12.0477 32.1267 9.18942C32.2898 8.21435 32.4096 7.29712 32.4977 6.45101C35.3968 6.75676 37.5511 9.31455 37.3994 12.2693C37.2471 15.224 34.8416 17.5401 31.9273 17.5375Z" fill="white"/>
</svg>
