<svg width="41" height="42" viewBox="0 0 41 42" fill="none" xmlns="http://www.w3.org/2000/svg">
<path d="M0.259277 24.6649C0.259277 21.7165 0.259277 17.2423 0.259277 14.7896C0.259277 10.9189 3.74311 -1.08323 19.0361 0.0788781C30.0621 0.915357 34.748 8.59463 36.5049 12.8158C36.5164 12.8441 36.5191 12.8734 36.5297 12.9016C36.5819 12.9653 36.6395 13.0238 36.6758 13.1016C36.8492 13.4787 40.9154 22.4592 40.1676 32.1619C40.1578 32.292 40.1206 32.4132 40.0649 32.523C40.0622 32.5469 40.0675 32.5672 40.064 32.5919C39.6763 35.6032 38.4008 38.278 37.3255 40.0828C36.505 41.4601 34.486 41.969 33.0078 41.3476L2.93319 28.6921C1.45684 28.0699 0.259277 26.2687 0.259277 24.6649ZM19.8222 15.8384C20.8701 18.8248 23.1546 23.5647 27.7476 26.7909C31.6987 29.5684 35.0604 30.165 37.2812 30.141C37.645 30.1375 37.9937 30.1862 38.3186 30.2721C38.4168 24.1931 36.6696 18.515 35.6419 15.7207C35.3374 15.9199 34.9781 16.0508 34.5771 16.0862C32.2006 16.296 28.7433 16.0774 25.8118 13.8221C23.9796 12.4121 22.5847 11.9262 21.5491 11.8783C19.9479 11.8049 19.291 14.3267 19.8222 15.8384ZM8.00223 25.2438C9.44499 25.2438 10.6152 24.0736 10.6152 22.6308C10.6152 21.1881 9.44499 20.0179 8.00223 20.0179C6.55947 20.0179 5.38848 21.1881 5.38848 22.6308C5.38848 24.0736 6.55957 25.2438 8.00223 25.2438Z" fill="white"/>
</svg>
