<svg width="19" height="27" viewBox="0 0 19 27" fill="none" xmlns="http://www.w3.org/2000/svg">
<path d="M9.4996 0C4.26178 0 0 4.45929 0 9.94042C0 11.3701 0.279664 12.7351 0.830806 13.9979C3.20597 19.4362 7.75982 25.1779 9.09925 26.808C9.19961 26.9298 9.34591 27 9.49987 27C9.65383 27 9.80013 26.9298 9.90048 26.808C11.2394 25.1782 15.7932 19.4368 18.1692 13.9979C18.7206 12.7351 19 11.3701 19 9.94042C18.9995 4.45929 14.7377 0 9.4996 0ZM9.4996 15.1035C6.77875 15.1035 4.56494 12.7871 4.56494 9.94014C4.56494 7.09292 6.77875 4.77651 9.4996 4.77651C12.2205 4.77651 14.4343 7.09292 14.4343 9.94014C14.4345 12.7871 12.2207 15.1035 9.4996 15.1035Z" fill="#569922"/>
</svg>
