<?xml version="1.0" encoding="utf-8"?>
<svg viewBox="629.800048828125 241.29983520507812 345.10003662109375 202.10006713867188" width="345.10003662109375" height="202.10006713867188" xmlns="http://www.w3.org/2000/svg"><path fill="#594A42" d="M974.3,385.8h-1.9c0-1-0.1-2-0.2-3l1.4-0.2c0.3,0,0.6-0.3,0.5-0.7l-0.4-2.8c0-0.1,0-0.2-0.1-0.2&#10;&#9;&#9;c0.1,0,0.3-0.1,0.4-0.2c0.1-0.1,0.1-0.3,0.1-0.4l-0.5-2.7c-0.1-0.3-0.4-0.5-0.7-0.5l-1.9,0.4c-0.2-1-0.5-2-0.8-2.9l1.3-0.4&#10;&#9;&#9;c0.3-0.1,0.5-0.4,0.4-0.8l-0.9-2.6c0-0.1-0.1-0.1-0.1-0.2c0.1-0.1,0.2-0.2,0.3-0.3c0.1-0.1,0.1-0.3,0-0.5l-1.1-2.6&#10;&#9;&#9;c-0.1-0.3-0.5-0.4-0.8-0.3l-1.8,0.7c-0.4-0.9-0.9-1.8-1.4-2.7l1.2-0.7c0.1-0.1,0.2-0.2,0.3-0.4c0-0.2,0-0.3-0.1-0.5l-1.4-2.4&#10;&#9;&#9;c0-0.1-0.1-0.1-0.2-0.2c0.3-0.2,0.3-0.5,0.1-0.8l-1.5-2.3c-0.2-0.3-0.6-0.3-0.8-0.2l-1.6,1.1c-0.6-0.8-1.2-1.6-1.9-2.4l1.1-0.9&#10;&#9;&#9;c0.2-0.2,0.3-0.6,0.1-0.8l-1.8-2.1c-0.1-0.1-0.1-0.1-0.2-0.1c0.2-0.2,0.2-0.6,0-0.8l-2-2c-0.2-0.2-0.6-0.2-0.8,0l-1.4,1.4&#10;&#9;&#9;c-0.7-0.7-1.5-1.4-2.3-2l0.9-1.1c0.2-0.3,0.2-0.6-0.1-0.8l-2.2-1.7c-0.1,0-0.1-0.1-0.2-0.1c0.1-0.1,0.1-0.3,0.1-0.4&#10;&#9;&#9;c0-0.2-0.1-0.3-0.3-0.4l-2.3-1.5c-0.3-0.2-0.6-0.1-0.8,0.2l-1.1,1.6c-0.9-0.5-1.7-1-2.6-1.5l0.6-1.3c0.1-0.1,0.1-0.3,0-0.5&#10;&#9;&#9;c-0.1-0.1-0.2-0.3-0.3-0.3l-2.5-1.2c-0.1,0-0.1-0.1-0.2-0.1c0.1-0.3,0-0.6-0.3-0.8l-2.6-1.1c-0.1-0.1-0.3-0.1-0.5,0&#10;&#9;&#9;c-0.1,0.1-0.3,0.2-0.3,0.3l-0.7,1.8c-1-0.4-1.9-0.7-2.9-1l0.4-1.3c0-0.2,0-0.3-0.1-0.5c-0.1-0.1-0.2-0.2-0.4-0.3l-2.7-0.7&#10;&#9;&#9;c-0.1,0-0.2,0-0.2,0c0-0.1,0-0.3-0.1-0.4c-0.1-0.1-0.2-0.2-0.4-0.3l-2.7-0.5c-0.3-0.1-0.6,0.1-0.7,0.5l-0.4,1.9c-1-0.2-2-0.3-3-0.4&#10;&#9;&#9;l0.1-1.4c0-0.2,0-0.3-0.1-0.4c-0.1-0.1-0.3-0.2-0.4-0.2l-2.8-0.2c-0.1,0-0.2,0-0.2,0c0-0.3-0.3-0.6-0.6-0.6h-2.8&#10;&#9;&#9;c-0.3,0-0.6,0.3-0.6,0.6v1.9c-1,0-2,0.1-3,0.2l-0.2-1.4c0-0.3-0.3-0.6-0.7-0.5l-2.8,0.4c-0.1,0-0.2,0-0.2,0.1&#10;&#9;&#9;c-0.1-0.3-0.4-0.5-0.7-0.5l-2.7,0.5c-0.2,0-0.3,0.1-0.4,0.3c-0.1,0.1-0.1,0.3-0.1,0.4l0.4,1.9c-1,0.2-2,0.5-2.9,0.8l-0.4-1.3&#10;&#9;&#9;c-0.1-0.3-0.4-0.5-0.8-0.4l-2.6,0.9c-0.1,0-0.1,0.1-0.2,0.1c-0.1-0.1-0.2-0.2-0.3-0.3c-0.1-0.1-0.3-0.1-0.5,0l-2.6,1.1&#10;&#9;&#9;c-0.3,0.1-0.4,0.5-0.3,0.8l0.7,1.8c-0.9,0.4-1.8,0.9-2.7,1.4l-0.7-1.2c-0.2-0.3-0.5-0.4-0.8-0.2l-2.4,1.4c-0.1,0-0.1,0.1-0.2,0.2&#10;&#9;&#9;c-0.2-0.3-0.5-0.3-0.8-0.1l-2.3,1.5c-0.1,0.1-0.2,0.2-0.3,0.4c0,0.2,0,0.3,0.1,0.4l1.1,1.6c-0.8,0.6-1.6,1.2-2.4,1.9l-0.9-1.1&#10;&#9;&#9;c-0.1-0.1-0.3-0.2-0.4-0.2c-0.2,0-0.3,0-0.4,0.1l-2.1,1.8c-0.1,0.1-0.1,0.1-0.1,0.2c-0.2-0.2-0.6-0.2-0.8,0l-2,2&#10;&#9;&#9;c-0.1,0.1-0.2,0.3-0.2,0.4c0,0.2,0.1,0.3,0.2,0.4l1.4,1.4c-0.7,0.7-1.4,1.5-2,2.3l-1.1-0.9c-0.3-0.2-0.6-0.2-0.8,0.1l-1.7,2.2&#10;&#9;&#9;c0,0.1-0.1,0.1-0.1,0.2c-0.3-0.2-0.6-0.1-0.8,0.2l-1.5,2.3c-0.2,0.3-0.1,0.6,0.2,0.8l1.6,1.1c-0.5,0.9-1,1.7-1.5,2.6l-1.3-0.6&#10;&#9;&#9;c-0.3-0.1-0.7,0-0.8,0.3l-0.6,1.1c-0.1-0.5-0.6-1-1.2-1.1c-0.1,0-0.3,0-0.4,0c-0.6-4.6-2.1-10.6-6-15.1l3.3,0.4&#10;&#9;&#9;c1.6,0.2,3.2-0.1,4.7-0.8l43.4-20.9c3.5-1.7,6.2-4.6,7.6-8.2c0.8-2,1.3-4.2,1.7-6.5c0.2-1.4-0.8-2.8-2.2-3l-10-1.4&#10;&#9;&#9;c-1.3-0.2-2.6,0-3.7,0.5l-9.1,4.1c0,0,5.9-8.1,15.4-11.6c9.5-3.4,36.8-7,41.3-7.1l7.7-2.5h-53.9c0,0-0.8-1.9-7.7-1.4&#10;&#9;&#9;c-4.3,0.3-32.4,1.9-52.6,3c-14,0.8-28-0.4-41.7-3.4l-14.6-3.3c-0.9-0.2-1.8,0-2.6,0.4l-1.6,1l-3.3-1.2l-1.5-2.8h0.7v-2&#10;&#9;&#9;c0,0-4.7-2.4-11.9-1.2v1.5l0.4,0l-0.7,1.3l-2.7,0l-0.5,0.6l-6.4-9.6l0.5-1.8l1.1-1.2l-0.7-0.5l1.8-3.3l-1.6-1.5l0.3-2.5&#10;&#9;&#9;c0,0,1.2,0,2.9,0c1.8,0,4.9-2.3,4.8-4.6c0,0,0.9,0,2.4,0c1.5,0,3-1.2,3-3.1h1.9v-4.2h-2.2l-0.9-0.8c0,0,1-4.3-3.9-3.3&#10;&#9;&#9;c0,0-0.3-1.1-1.3-1.1c0,0-0.4-3.2-1.6-3.6c-1.3-0.4-5.1-0.2-5.8,1.7c-0.8,1.8,1.1,2.9,1.1,2.9l0.6,1.3l-3,1.5v-1.3h-4.6l-1.6,0.7&#10;&#9;&#9;v2.6l1.6,1h-2.9v0.4h-1.6v3.1h2c0,0-3.4,1.2-5,3.2C746.5,260.7,730,288,730,288s-25.1-1.3-33.9-0.2c-8.7,1.1-14.4,3.4-23,8.3&#10;&#9;&#9;c-5.4,3.1-10.7,6.3-14,8.3c-0.6,0.3-0.2,1.2,0.4,1.1l25.6-6.3l2.5-1.5c1.2-0.7,2.5-1,3.9-1c6.5,0.3,26.3,1.3,35.2,3.4l-15,31.6&#10;&#9;&#9;l-1-0.3l-1.7,3.5v2.7l-0.3-0.1c-0.1,0-0.1-0.1-0.2-0.1c0.1-0.3,0-0.6-0.3-0.8l-2.6-1.1c-0.1-0.1-0.3-0.1-0.5,0&#10;&#9;&#9;c-0.1,0.1-0.3,0.2-0.3,0.3l-0.7,1.8c-1-0.4-1.9-0.7-2.9-1l0.4-1.3c0-0.2,0-0.3-0.1-0.5c-0.1-0.1-0.2-0.2-0.4-0.3l-2.7-0.7&#10;&#9;&#9;c-0.1,0-0.2,0-0.2,0c0-0.1,0-0.3-0.1-0.4c-0.1-0.1-0.2-0.2-0.4-0.3l-2.7-0.5c-0.3-0.1-0.6,0.1-0.7,0.5l-0.4,1.9c-1-0.2-2-0.3-3-0.4&#10;&#9;&#9;l0.1-1.4c0-0.2,0-0.3-0.1-0.4c-0.1-0.1-0.3-0.2-0.4-0.2l-2.8-0.2c-0.1,0-0.2,0-0.2,0c0-0.3-0.3-0.6-0.6-0.6H684&#10;&#9;&#9;c-0.3,0-0.6,0.3-0.6,0.6v1.9c-1,0-2,0.1-3,0.2l-0.2-1.4c0-0.3-0.3-0.6-0.7-0.5l-2.8,0.4c-0.1,0-0.2,0-0.2,0.1&#10;&#9;&#9;c-0.1-0.3-0.4-0.5-0.7-0.5l-2.7,0.5c-0.2,0-0.3,0.1-0.4,0.3c-0.1,0.1-0.1,0.3-0.1,0.4l0.4,1.9c-1,0.2-2,0.5-2.9,0.8l-0.4-1.3&#10;&#9;&#9;c-0.1-0.3-0.4-0.5-0.8-0.4l-2.6,0.9c-0.1,0-0.1,0.1-0.2,0.1c-0.1-0.1-0.2-0.2-0.3-0.3c-0.1-0.1-0.3-0.1-0.5,0l-2.6,1.1&#10;&#9;&#9;c-0.3,0.1-0.4,0.5-0.3,0.8l0.7,1.8c-0.9,0.4-1.8,0.9-2.7,1.4l-0.7-1.2c-0.2-0.3-0.5-0.4-0.8-0.2l-2.4,1.4c-0.1,0-0.1,0.1-0.2,0.2&#10;&#9;&#9;c-0.2-0.3-0.5-0.3-0.8-0.1l-2.3,1.5c-0.1,0.1-0.2,0.2-0.3,0.4c0,0.2,0,0.3,0.1,0.4l1.1,1.6c-0.8,0.6-1.6,1.2-2.4,1.9l-0.9-1.1&#10;&#9;&#9;c-0.1-0.1-0.3-0.2-0.4-0.2c-0.2,0-0.3,0-0.4,0.1l-2.1,1.8c-0.1,0.1-0.1,0.1-0.1,0.2c-0.2-0.2-0.6-0.2-0.8,0l-2,2&#10;&#9;&#9;c-0.1,0.1-0.2,0.3-0.2,0.4c0,0.2,0.1,0.3,0.2,0.4l1.4,1.4c-0.7,0.7-1.4,1.5-2,2.3l-1.1-0.9c-0.3-0.2-0.6-0.2-0.8,0.1l-1.7,2.2&#10;&#9;&#9;c0,0.1-0.1,0.1-0.1,0.2c-0.3-0.2-0.6-0.1-0.8,0.2l-1.5,2.3c-0.2,0.3-0.1,0.6,0.2,0.8l1.6,1.1c-0.5,0.9-1,1.7-1.5,2.6l-1.3-0.6&#10;&#9;&#9;c-0.3-0.1-0.7,0-0.8,0.3l-1.2,2.5c0,0.1-0.1,0.1-0.1,0.2c-0.3-0.1-0.6,0-0.8,0.3l-1.1,2.6c-0.1,0.1-0.1,0.3,0,0.5&#10;&#9;&#9;c0.1,0.1,0.2,0.3,0.3,0.3l1.8,0.7c-0.4,0.9-0.7,1.9-1,2.9l-1.3-0.4c-0.3-0.1-0.6,0.1-0.7,0.4l-0.7,2.7c0,0.1,0,0.2,0,0.2&#10;&#9;&#9;c-0.3-0.1-0.6,0.2-0.7,0.5l-0.5,2.7c-0.1,0.3,0.1,0.6,0.5,0.7l1.9,0.4c-0.2,1-0.3,2-0.4,3l-1.4-0.1c-0.3,0-0.6,0.2-0.6,0.6&#10;&#9;&#9;l-0.2,2.8c0,0.1,0,0.2,0,0.2c-0.3,0-0.6,0.3-0.6,0.6v2.8c0,0.3,0.3,0.6,0.6,0.6h1.9c0,1,0.1,2,0.2,3l-1.4,0.2&#10;&#9;&#9;c-0.3,0-0.6,0.3-0.5,0.7l0.4,2.8c0,0.1,0,0.2,0.1,0.2c-0.3,0.1-0.5,0.4-0.5,0.7l0.5,2.7c0,0.2,0.1,0.3,0.3,0.4&#10;&#9;&#9;c0.1,0.1,0.3,0.1,0.4,0.1l1.9-0.4c0.2,1,0.5,2,0.8,2.9l-1.3,0.4c-0.1,0.1-0.3,0.2-0.3,0.3c-0.1,0.1-0.1,0.3,0,0.5l0.9,2.6&#10;&#9;&#9;c0,0.1,0.1,0.1,0.1,0.2c-0.3,0.1-0.4,0.5-0.3,0.8l1.1,2.6c0.1,0.1,0.2,0.3,0.3,0.3c0.1,0.1,0.3,0.1,0.5,0l1.8-0.7&#10;&#9;&#9;c0.4,0.9,0.9,1.8,1.4,2.7l-1.2,0.7c-0.3,0.2-0.4,0.5-0.2,0.8l1.4,2.4c0,0.1,0.1,0.1,0.2,0.2c-0.3,0.2-0.3,0.5-0.1,0.8l1.5,2.3&#10;&#9;&#9;c0.1,0.1,0.2,0.2,0.4,0.3c0.2,0,0.3,0,0.4-0.1l1.6-1.1c0.6,0.8,1.2,1.6,1.9,2.4l-1.1,0.9c-0.2,0.2-0.3,0.6-0.1,0.8l1.8,2.1&#10;&#9;&#9;c0.1,0.1,0.1,0.1,0.2,0.1c-0.1,0.1-0.2,0.3-0.2,0.4c0,0.2,0.1,0.3,0.2,0.4l2,2c0.2,0.2,0.6,0.2,0.8,0l1.4-1.4&#10;&#9;&#9;c0.7,0.7,1.5,1.4,2.3,2l-0.9,1.1c-0.2,0.3-0.2,0.6,0.1,0.8l2.2,1.7c0.1,0,0.1,0.1,0.2,0.1c-0.1,0.1-0.1,0.3-0.1,0.4&#10;&#9;&#9;c0,0.2,0.1,0.3,0.3,0.4l2.3,1.5c0.3,0.2,0.6,0.1,0.8-0.2l1.1-1.6c0.9,0.5,1.7,1,2.6,1.5l-0.6,1.3c-0.1,0.1-0.1,0.3,0,0.5&#10;&#9;&#9;c0.1,0.1,0.2,0.3,0.3,0.3l2.5,1.2c0.1,0,0.1,0.1,0.2,0.1c-0.1,0.3,0,0.6,0.3,0.8l2.6,1.1c0.1,0.1,0.3,0.1,0.5,0&#10;&#9;&#9;c0.1-0.1,0.3-0.2,0.3-0.3l0.7-1.8c1,0.4,1.9,0.7,2.9,1l-0.4,1.3c-0.1,0.3,0.1,0.6,0.4,0.7l2.7,0.7c0.1,0,0.2,0,0.2,0&#10;&#9;&#9;c0,0.1,0,0.3,0.1,0.4c0.1,0.1,0.2,0.2,0.4,0.3l2.7,0.5c0.3,0.1,0.6-0.1,0.7-0.5l0.4-1.9c1,0.2,2,0.3,3,0.4l-0.1,1.4&#10;&#9;&#9;c0,0.2,0,0.3,0.1,0.4c0.1,0.1,0.3,0.2,0.4,0.2l2.8,0.2c0.1,0,0.2,0,0.2,0c0,0.3,0.3,0.6,0.6,0.6h2.8c0.3,0,0.6-0.3,0.6-0.6v-1.9&#10;&#9;&#9;c1,0,2-0.1,3-0.2l0.2,1.4c0,0.2,0.1,0.3,0.2,0.4c0.1,0.1,0.3,0.1,0.4,0.1l2.8-0.4c0.1,0,0.2,0,0.2-0.1c0.1,0.3,0.4,0.5,0.7,0.5&#10;&#9;&#9;l2.7-0.5c0.2,0,0.3-0.1,0.4-0.3c0.1-0.1,0.1-0.3,0.1-0.4l-0.4-1.9c1-0.2,2-0.5,2.9-0.8l0.4,1.3c0.1,0.1,0.2,0.3,0.3,0.3&#10;&#9;&#9;c0.1,0.1,0.3,0.1,0.5,0l2.6-0.9c0.1,0,0.1-0.1,0.2-0.1c0.1,0.1,0.2,0.2,0.3,0.3c0.1,0.1,0.3,0.1,0.5,0l2.6-1.1&#10;&#9;&#9;c0.3-0.1,0.4-0.5,0.3-0.8l-0.7-1.8c0.9-0.4,1.8-0.9,2.7-1.4l0.7,1.2c0.2,0.3,0.5,0.4,0.8,0.2l2.4-1.4c0.1,0,0.1-0.1,0.2-0.2&#10;&#9;&#9;c0.1,0.1,0.2,0.2,0.4,0.2c0.2,0,0.3,0,0.4-0.1l2.3-1.5c0.1-0.1,0.2-0.2,0.3-0.4c0-0.2,0-0.3-0.1-0.4l-1.1-1.6&#10;&#9;&#9;c0.8-0.6,1.6-1.2,2.4-1.9l0.9,1.1c0.2,0.2,0.6,0.3,0.8,0.1l2.1-1.8c0.1-0.1,0.1-0.1,0.1-0.2c0.1,0.1,0.3,0.2,0.4,0.2&#10;&#9;&#9;c0.2,0,0.3-0.1,0.4-0.2l2-2c0.2-0.2,0.2-0.6,0-0.8l-1.4-1.4c0.7-0.7,1.4-1.5,2-2.3l1.1,0.9c0.3,0.2,0.6,0.2,0.8-0.1l1.7-2.2&#10;&#9;&#9;c0-0.1,0.1-0.1,0.1-0.2c0.1,0.1,0.3,0.1,0.4,0.1c0.2,0,0.3-0.1,0.4-0.3l1.5-2.3c0.2-0.3,0.1-0.6-0.2-0.8l-1.6-1.1&#10;&#9;&#9;c0.5-0.9,1-1.7,1.5-2.6l1.3,0.6c0.1,0.1,0.3,0.1,0.5,0c0.1-0.1,0.3-0.2,0.3-0.3l1.2-2.5c0-0.1,0.1-0.1,0.1-0.2&#10;&#9;&#9;c0.3,0.1,0.6,0,0.8-0.3l1.1-2.6c0.1-0.1,0.1-0.3,0-0.5c-0.1-0.1-0.2-0.3-0.3-0.3l-1.8-0.7c0.4-1,0.7-1.9,1-2.9l1.3,0.4&#10;&#9;&#9;c0.2,0,0.3,0,0.5-0.1c0.1-0.1,0.2-0.2,0.3-0.4l0.7-2.7c0-0.1,0-0.2,0-0.2c0.1,0,0.3,0,0.4-0.1c0.1-0.1,0.2-0.2,0.3-0.4l0.5-2.7&#10;&#9;&#9;c0.1-0.3-0.1-0.6-0.5-0.7l-1.9-0.4c0.2-1,0.3-2,0.4-3l1.4,0.1c0.2,0,0.3,0,0.4-0.1c0.1-0.1,0.2-0.3,0.2-0.4l0.2-2.8&#10;&#9;&#9;c0-0.1,0-0.2,0-0.2c0.3,0,0.6-0.3,0.6-0.6v-2.8c0-0.3-0.3-0.6-0.6-0.6h-1.9c0-1-0.1-2-0.2-3l1.4-0.2c0.3,0,0.6-0.3,0.5-0.7&#10;&#9;&#9;l-0.4-2.8c0-0.1,0-0.2-0.1-0.2c0.1,0,0.3-0.1,0.4-0.2c0.1-0.1,0.1-0.3,0.1-0.4l-0.5-2.7c-0.1-0.3-0.4-0.5-0.7-0.5l-1.9,0.4&#10;&#9;&#9;c-0.2-1-0.5-2-0.8-2.9l1.3-0.4c0.3-0.1,0.5-0.4,0.4-0.8l-0.9-2.6c0-0.1-0.1-0.1-0.1-0.2c0.1-0.1,0.2-0.2,0.3-0.3&#10;&#9;&#9;c0.1-0.1,0.1-0.3,0-0.5l-1.1-2.6c-0.1-0.3-0.5-0.4-0.8-0.3l-1.8,0.7c-0.4-0.9-0.9-1.8-1.4-2.7l1.2-0.7c0.1-0.1,0.2-0.2,0.3-0.4&#10;&#9;&#9;c0-0.2,0-0.3-0.1-0.5l-1.4-2.4c0-0.1-0.1-0.1-0.2-0.2c0.3-0.2,0.3-0.5,0.1-0.8l-1.5-2.3c-0.2-0.3-0.6-0.3-0.8-0.2l-1.6,1.1&#10;&#9;&#9;c-0.6-0.8-1.2-1.6-1.9-2.4l1.1-0.9c0.2-0.2,0.3-0.6,0.1-0.8l-1.8-2.1c-0.1-0.1-0.1-0.1-0.2-0.1c0.2-0.2,0.2-0.6,0-0.8l-2-2&#10;&#9;&#9;c-0.2-0.2-0.6-0.2-0.8,0l-1.4,1.4c-0.7-0.7-1.5-1.4-2.3-2l0.9-1.1c0.2-0.3,0.2-0.6-0.1-0.8l-1.2-1l4.4-3l1.6-4h-0.8l8.8-16.6&#10;&#9;&#9;c0.8-1.5,2.7-2.2,4.2-1.4l11,5c1.8,0.8,3.4,2.1,4.5,3.7l10.4,14.8c0.4,0.6,1.2,1,2,1h0.5v1.1c0,0.5,0.2,1,0.6,1.4l2.1,2.1&#10;&#9;&#9;c0,0-5.8,6.5-6,12.2s0.8,7.6,3.4,8.5s6.7,0.5,9.1-1.5l1.2-1.1l1.3,3.2c0.9,2.2,2.2,4.3,3.8,6.1l6.8,7.3c2.6,2.9,6.2,4.7,10.1,5.2&#10;&#9;&#9;l13,1.6c3.5,0.4,7.1,0.1,10.3-1.3c0.8-0.3,1.7-0.5,2.5-0.5h3.2c1,0,1.8-0.7,2-1.6c0.2-0.8,0.9-1.3,1.7-1.3l7.9,0l1.9,0.3&#10;&#9;&#9;c0,0,0.5,2.4,0.9,4.2c0.4,1.8,1.2,3.4,2.9,3.2c1.7-0.3,3.1-2.7,5.7-2.7c1.7,0,3.4,0.5,5.1,0.2c0.5-0.1,1.1-0.3,1.4-0.7&#10;&#9;&#9;c0.2-0.3,0.3-0.7,0.4-1.1c0.1,0,0.1,0,0.2,0c0.5,0,1-0.3,1.2-0.7c0,0,0,0,0,0c0,0.6,0.4,1.2,1,1.4c0.1,0,0.3,0.1,0.4,0.1&#10;&#9;&#9;c0.5,0,1-0.3,1.2-0.7l0,0c0,0.6,0.4,1.2,1,1.4c0.1,0,0.3,0.1,0.4,0.1c0.2,0,0.4-0.1,0.6-0.1c0.1,0.2,0.3,0.4,0.6,0.4h0.4&#10;&#9;&#9;c0.2,0.2,0.4,0.4,0.7,0.5c0.1,0,0.3,0.1,0.4,0.1c0.1,0,0.3,0,0.4-0.1c0,0.9,0.1,1.7,0.2,2.6l-1.4,0.2c-0.3,0-0.6,0.3-0.5,0.7&#10;&#9;&#9;l0.4,2.8c0,0.1,0,0.2,0.1,0.2c-0.3,0.1-0.5,0.4-0.5,0.7l0.5,2.7c0,0.2,0.1,0.3,0.3,0.4c0.1,0.1,0.3,0.1,0.4,0.1l1.9-0.4&#10;&#9;&#9;c0.2,1,0.5,2,0.8,2.9l-1.3,0.4c-0.1,0.1-0.3,0.2-0.3,0.3c-0.1,0.1-0.1,0.3,0,0.5l0.9,2.6c0,0.1,0.1,0.1,0.1,0.2&#10;&#9;&#9;c-0.3,0.1-0.4,0.5-0.3,0.8l1.1,2.6c0.1,0.1,0.2,0.3,0.3,0.3c0.1,0.1,0.3,0.1,0.5,0l1.8-0.7c0.4,0.9,0.9,1.8,1.4,2.7l-1.2,0.7&#10;&#9;&#9;c-0.3,0.2-0.4,0.5-0.2,0.8l1.4,2.4c0,0.1,0.1,0.1,0.2,0.2c-0.3,0.2-0.3,0.5-0.1,0.8l1.5,2.3c0.1,0.1,0.2,0.2,0.4,0.3&#10;&#9;&#9;c0.2,0,0.3,0,0.4-0.1l1.6-1.1c0.6,0.8,1.2,1.6,1.9,2.4l-1.1,0.9c-0.2,0.2-0.3,0.6-0.1,0.8l1.8,2.1c0.1,0.1,0.1,0.1,0.2,0.1&#10;&#9;&#9;c-0.1,0.1-0.2,0.3-0.2,0.4c0,0.2,0.1,0.3,0.2,0.4l2,2c0.2,0.2,0.6,0.2,0.8,0l1.4-1.4c0.7,0.7,1.5,1.4,2.3,2l-0.9,1.1&#10;&#9;&#9;c-0.2,0.3-0.2,0.6,0.1,0.8l2.2,1.7c0.1,0,0.1,0.1,0.2,0.1c-0.1,0.1-0.1,0.3-0.1,0.4c0,0.2,0.1,0.3,0.3,0.4l2.3,1.5&#10;&#9;&#9;c0.3,0.2,0.6,0.1,0.8-0.2l1.1-1.6c0.9,0.5,1.7,1,2.6,1.5l-0.6,1.3c-0.1,0.1-0.1,0.3,0,0.5c0.1,0.1,0.2,0.3,0.3,0.3l2.5,1.2&#10;&#9;&#9;c0.1,0,0.1,0.1,0.2,0.1c-0.1,0.3,0,0.6,0.3,0.8l2.6,1.1c0.1,0.1,0.3,0.1,0.5,0c0.1-0.1,0.3-0.2,0.3-0.3l0.7-1.8&#10;&#9;&#9;c1,0.4,1.9,0.7,2.9,1l-0.4,1.3c-0.1,0.3,0.1,0.6,0.4,0.7l2.7,0.7c0.1,0,0.2,0,0.2,0c0,0.1,0,0.3,0.1,0.4c0.1,0.1,0.2,0.2,0.4,0.3&#10;&#9;&#9;l2.7,0.5c0.3,0.1,0.6-0.1,0.7-0.5l0.4-1.9c1,0.2,2,0.3,3,0.4l-0.1,1.4c0,0.2,0,0.3,0.1,0.4c0.1,0.1,0.3,0.2,0.4,0.2l2.8,0.2&#10;&#9;&#9;c0.1,0,0.2,0,0.2,0c0,0.3,0.3,0.6,0.6,0.6h2.8c0.3,0,0.6-0.3,0.6-0.6v-1.9c1,0,2-0.1,3-0.2l0.2,1.4c0,0.2,0.1,0.3,0.2,0.4&#10;&#9;&#9;c0.1,0.1,0.3,0.1,0.4,0.1l2.8-0.4c0.1,0,0.2,0,0.2-0.1c0.1,0.3,0.4,0.5,0.7,0.5l2.7-0.5c0.2,0,0.3-0.1,0.4-0.3&#10;&#9;&#9;c0.1-0.1,0.1-0.3,0.1-0.4l-0.4-1.9c1-0.2,2-0.5,2.9-0.8l0.4,1.3c0.1,0.1,0.2,0.3,0.3,0.3c0.1,0.1,0.3,0.1,0.5,0l2.6-0.9&#10;&#9;&#9;c0.1,0,0.1-0.1,0.2-0.1c0.1,0.1,0.2,0.2,0.3,0.3c0.1,0.1,0.3,0.1,0.5,0l2.6-1.1c0.3-0.1,0.4-0.5,0.3-0.8l-0.7-1.8&#10;&#9;&#9;c0.9-0.4,1.8-0.9,2.7-1.4l0.7,1.2c0.2,0.3,0.5,0.4,0.8,0.2l2.4-1.4c0.1,0,0.1-0.1,0.2-0.2c0.1,0.1,0.2,0.2,0.4,0.2&#10;&#9;&#9;c0.2,0,0.3,0,0.4-0.1l2.3-1.5c0.1-0.1,0.2-0.2,0.3-0.4c0-0.2,0-0.3-0.1-0.4l-1.1-1.6c0.8-0.6,1.6-1.2,2.4-1.9l0.9,1.1&#10;&#9;&#9;c0.2,0.2,0.6,0.3,0.8,0.1l2.1-1.8c0.1-0.1,0.1-0.1,0.1-0.2c0.1,0.1,0.3,0.2,0.4,0.2c0.2,0,0.3-0.1,0.4-0.2l2-2&#10;&#9;&#9;c0.2-0.2,0.2-0.6,0-0.8l-1.4-1.4c0.7-0.7,1.4-1.5,2-2.3l1.1,0.9c0.3,0.2,0.6,0.2,0.8-0.1l1.7-2.2c0-0.1,0.1-0.1,0.1-0.2&#10;&#9;&#9;c0.1,0.1,0.3,0.1,0.4,0.1c0.2,0,0.3-0.1,0.4-0.3l1.5-2.3c0.2-0.3,0.1-0.6-0.2-0.8l-1.6-1.1c0.5-0.9,1-1.7,1.5-2.6l1.3,0.6&#10;&#9;&#9;c0.1,0.1,0.3,0.1,0.5,0c0.1-0.1,0.3-0.2,0.3-0.3l1.2-2.5c0-0.1,0.1-0.1,0.1-0.2c0.3,0.1,0.6,0,0.8-0.3l1.1-2.6&#10;&#9;&#9;c0.1-0.1,0.1-0.3,0-0.5c-0.1-0.1-0.2-0.3-0.3-0.3l-1.8-0.7c0.4-1,0.7-1.9,1-2.9l1.3,0.4c0.2,0,0.3,0,0.5-0.1&#10;&#9;&#9;c0.1-0.1,0.2-0.2,0.3-0.4l0.7-2.7c0-0.1,0-0.2,0-0.2c0.1,0,0.3,0,0.4-0.1c0.1-0.1,0.2-0.2,0.3-0.4l0.5-2.7c0.1-0.3-0.1-0.6-0.5-0.7&#10;&#9;&#9;l-1.9-0.4c0.2-1,0.3-2,0.4-3l1.4,0.1c0.2,0,0.3,0,0.4-0.1c0.1-0.1,0.2-0.3,0.2-0.4l0.2-2.8c0-0.1,0-0.2,0-0.2&#10;&#9;&#9;c0.3,0,0.6-0.3,0.6-0.6v-2.8C974.9,386.1,974.6,385.8,974.3,385.8z M715.5,362.6l-1.7,1.8l0.3,0.3l-8.7,9.4l-4.2,1.5l9.3-18&#10;&#9;&#9;C712.4,359.2,714,360.8,715.5,362.6z M724.5,384.3c0.1,1.2,0.2,2.3,0.2,3.5c0,1.2-0.1,2.4-0.2,3.5l-2.5,0.1l0,0.4l-12.8,0.5&#10;&#9;&#9;l-6.9-3.2l-0.2-0.5c-0.2-0.5-0.2-1.1,0-1.7l0.2-0.5l6.9-3.2l12.8,0.5l0,0.4L724.5,384.3z M695.7,398.7l-0.4-1l1,0.4&#10;&#9;&#9;C696.1,398.3,695.9,398.5,695.7,398.7z M686.3,402.8l-0.7-1.4l1.6-3.5c0.1,0.1,0.3,0.1,0.4,0.2l0.5,0.4l2.2,2l-0.1,1.6&#10;&#9;&#9;C689,402.4,687.7,402.7,686.3,402.8z M690.2,405.3l-0.2,5.4l-2.7-5.9l1.3,0.4C689.1,405.4,689.7,405.4,690.2,405.3z M680.5,402&#10;&#9;&#9;l-0.1-1.6l2.2-2l0.5-0.4c0.1-0.1,0.3-0.1,0.4-0.2l1.6,3.5l-0.7,1.4C683.1,402.7,681.7,402.4,680.5,402z M683.6,404.8l-2.7,5.9&#10;&#9;&#9;l-0.2-5.4c0.5,0.2,1.1,0.2,1.6,0L683.6,404.8z M674.5,398.1l1-0.4l-0.4,1C674.9,398.5,674.7,398.3,674.5,398.1z M646.3,391.3&#10;&#9;&#9;c-0.1-1.2-0.2-2.3-0.2-3.5c0-1.2,0.1-2.4,0.2-3.5l2.5-0.1l0-0.4l12.8-0.5l6.9,3.2l0.2,0.5c0.2,0.5,0.2,1.1,0,1.7l-0.2,0.5l-6.9,3.2&#10;&#9;&#9;l-12.8-0.5l0-0.4L646.3,391.3z M675.1,376.9l0.4,1l-1-0.4C674.7,377.3,674.9,377.1,675.1,376.9z M684.5,372.8l0.7,1.4l-1.6,3.5&#10;&#9;&#9;c-0.1-0.1-0.3-0.1-0.4-0.2l-0.5-0.4l-2.2-2l0.1-1.6C681.7,373.2,683.1,372.9,684.5,372.8z M680.6,370.3l0.2-5.4l2.7,5.9l-1.3-0.4&#10;&#9;&#9;C681.7,370.1,681.1,370.1,680.6,370.3z M690.3,373.6l0,1l-0.7,1.3l-1.5,1.4l-0.5,0.4c-0.1,0.1-0.3,0.1-0.4,0.2l-1.6-3.5l0.7-1.4&#10;&#9;&#9;C687.7,372.9,689,373.2,690.3,373.6z M687.2,370.7l2.7-5.9l0.2,5.4c-0.5-0.2-1.1-0.2-1.6,0L687.2,370.7z M683.9,377.9l1.5-3.2&#10;&#9;&#9;l1.5,3.2C685.9,378.3,684.9,378.3,683.9,377.9z M680.4,375.8L680.4,375.8l0.2,0.1L680.4,375.8z M677.7,380.7c0,0.5,0,1-0.2,1.4&#10;&#9;&#9;l-1.3-3.6l1.4,0.5L677.7,380.7z M677.3,382.7c-0.4,0.8-1,1.5-1.8,1.9l-0.3,0.1l-1.8-2L677.3,382.7L677.3,382.7z M675.4,391&#10;&#9;&#9;c0.8,0.4,1.5,1.1,1.8,1.9l0,0.1l-3.9-0.2l1.8-2L675.4,391z M677.5,393.4c0.1,0.5,0.2,0.9,0.2,1.4l-0.1,1.7l-1.4,0.5L677.5,393.4z&#10;&#9;&#9; M680.6,399.7l-0.2,0.2l0-0.1L680.6,399.7z M686.9,397.6l-1.5,3.2l-1.5-3.2C684.9,397.3,685.9,397.3,686.9,397.6z M690.4,399.8&#10;&#9;&#9;L690.4,399.8l-0.2-0.1L690.4,399.8z M693.1,394.8c0-0.5,0-1,0.2-1.4l1.3,3.6l-1.4-0.5L693.1,394.8z M693.5,392.9&#10;&#9;&#9;c0.4-0.8,1-1.5,1.8-1.9l0.3-0.1l1.8,2L693.5,392.9L693.5,392.9z M698.6,380.7c0.1,0.2,0.2,0.3,0.3,0.5l-1.1,1.2l0,0L698.6,380.7z&#10;&#9;&#9; M690.7,373.9l0-0.2c0,0,0,0,0.1,0c0,0,0,0,0,0L690.7,373.9z M685.4,373.8l-0.5-1c0.2,0,0.3,0,0.5,0c0.2,0,0.3,0,0.5,0L685.4,373.8&#10;&#9;&#9;z M680,374.8l-0.6-0.5c0.1-0.2,0.3-0.5,0.5-0.6c0,0,0,0,0.1,0L680,374.8z M680,375.4l0,0.2l-0.2-0.1c-0.2-0.1-0.3-0.4-0.4-0.6&#10;&#9;&#9;L680,375.4z M675.9,376.1c0.6-0.5,1.5-0.1,1.5,0.7l0.1,1.8L676,378l-0.5-1.5C675.6,376.4,675.8,376.3,675.9,376.1z M674.5,374.1&#10;&#9;&#9;l-2.1-5.8l5.2,4.8c-0.4,0.3-0.8,0.5-1.2,0.6L674.5,374.1z M675.7,378.4l1.4,3.9l-4.1,0.2l-1.1-1.2c0.6-1.2,1.4-2.4,2.3-3.4&#10;&#9;&#9;L675.7,378.4z M671.3,378.7c-0.1,0.5-0.3,0.9-0.6,1.2l-4.8-5.2l5.8,2.1L671.3,378.7z M672.4,382.4l-1.1,0c0.1-0.3,0.2-0.6,0.3-0.8&#10;&#9;&#9;L672.4,382.4z M672.8,382.8l2,2.1l-2.9,1.5c-0.7,0.3-1.5-0.2-1.3-1c0.1-0.9,0.4-1.7,0.6-2.6L672.8,382.8z M667.9,384.6l0.4,1.3&#10;&#9;&#9;l-5.9-2.7l5.4-0.2C667.7,383.5,667.7,384.1,667.9,384.6z M668.4,389.6l-0.4,1.3c-0.2,0.5-0.2,1.1,0,1.6l-5.4-0.2L668.4,389.6z&#10;&#9;&#9; M670.6,390.1c-0.1-0.7,0.7-1.3,1.3-1l2.9,1.5l-2,2.1l-1.6-0.1C670.9,391.9,670.7,391,670.6,390.1z M672.4,393.1l-0.7,0.8&#10;&#9;&#9;c-0.1-0.3-0.2-0.6-0.3-0.8L672.4,393.1z M670.7,395.6c0.3,0.4,0.5,0.8,0.6,1.2l0.4,1.8l-5.8,2.1L670.7,395.6z M671.9,394.3l1.1-1.2&#10;&#9;&#9;l4.1,0.2l-1.4,3.9l-1.5,0.5C673.3,396.7,672.5,395.6,671.9,394.3z M676,397.5l1.6-0.6l-0.1,1.8c0,0.8-0.9,1.2-1.5,0.7&#10;&#9;&#9;c-0.2-0.1-0.4-0.3-0.5-0.4L676,397.5z M676.3,401.8c0.5,0.1,0.9,0.3,1.2,0.6l-5.2,4.8l2.1-5.8L676.3,401.8z M679.8,400.2l0.2-0.1&#10;&#9;&#9;l0,0.2l-0.6,0.5C679.5,400.5,679.6,400.3,679.8,400.2z M680,400.7l0,1.1c0,0,0,0-0.1,0c-0.3-0.1-0.4-0.3-0.5-0.6L680,400.7z&#10;&#9;&#9; M685.4,401.8l0.5,1c-0.2,0-0.3,0-0.5,0c-0.2,0-0.3,0-0.5,0L685.4,401.8z M690.8,400.7l0.6,0.5c-0.1,0.2-0.3,0.5-0.5,0.6&#10;&#9;&#9;c0,0,0,0-0.1,0L690.8,400.7z M690.8,400.2l0-0.2l0.2,0.1c0.2,0.1,0.3,0.4,0.4,0.6L690.8,400.2z M694.8,399.5&#10;&#9;&#9;c-0.6,0.5-1.5,0.1-1.5-0.7l-0.1-1.8l1.6,0.6l0.5,1.5C695.2,399.2,695,399.3,694.8,399.5z M696.3,401.5l2.1,5.8l-5.2-4.8&#10;&#9;&#9;c0.4-0.3,0.8-0.5,1.2-0.6L696.3,401.5z M695.1,397.2l-1.4-3.9l4.1-0.2l1.1,1.2c-0.6,1.2-1.4,2.4-2.3,3.4L695.1,397.2z M699.4,396.9&#10;&#9;&#9;c0.1-0.5,0.3-0.9,0.6-1.2l4.8,5.2l-5.8-2.1L699.4,396.9z M698.3,393.1l1.1,0c-0.1,0.3-0.2,0.6-0.3,0.8L698.3,393.1z M698,392.8&#10;&#9;&#9;l-2-2.1l2.9-1.5c0.7-0.3,1.5,0.2,1.3,1c-0.1,0.9-0.4,1.7-0.6,2.6L698,392.8z M702.9,391l-0.4-1.3l5.9,2.7l-5.4,0.2&#10;&#9;&#9;C703,392.1,703.1,391.5,702.9,391z M702.4,386l0.4-1.3c0.2-0.5,0.2-1.1,0-1.6l5.4,0.2L702.4,386z M700.2,385.4&#10;&#9;&#9;c0.1,0.7-0.7,1.3-1.3,1l-2.5-1.3l0.7-1.3l1-1l1.6,0.1C699.9,383.7,700.1,384.5,700.2,385.4z M698.3,382.4l0.7-0.8&#10;&#9;&#9;c0.1,0.3,0.2,0.6,0.3,0.8L698.3,382.4z M700.1,379.9c-0.2-0.3-0.4-0.6-0.5-0.9l1.5-2.8l3.8-1.4L700.1,379.9z M702.5,352.4&#10;&#9;&#9;l-10.5,19.3l-0.6-0.6c-0.2-0.3-0.5-0.5-0.8-0.6l-0.3-6.4l5.4-11.6l0.4,0.2l1.1-2.3C699,350.9,700.8,351.6,702.5,352.4z M696,350&#10;&#9;&#9;l-1,2.1l0.4,0.2l-5.1,10.9l-0.5-12l0.4,0l-0.1-2.3C692.1,349,694.1,349.4,696,350z M685.4,348.5c1.2,0,2.4,0.1,3.5,0.2l0.1,2.5&#10;&#9;&#9;l0.4,0l0.5,12.8l-3.2,6.9l-0.5,0.2c-0.5,0.2-1.1,0.2-1.7,0l-0.5-0.2l-3.2-6.9l0.5-12.8l0.4,0l0.1-2.5&#10;&#9;&#9;C683,348.6,684.2,348.5,685.4,348.5z M680.7,348.8l-0.1,2.3l0.4,0l-0.5,12l-5.1-10.9l0.4-0.2l-1-2.1&#10;&#9;&#9;C676.7,349.4,678.7,349,680.7,348.8z M673.7,350.3l1.1,2.3l0.4-0.2l5.4,11.6l-0.3,6.4c-0.3,0.1-0.6,0.3-0.8,0.6l-1.6,1.8l-5.7-5.3&#10;&#9;&#9;l-4.4-12l0.4-0.1l-0.9-2.4C669.2,351.9,671.4,351,673.7,350.3z M666.1,353.6l0.8,2.2l0.4-0.1l4.2,11.3l-8.9-8.2l0.3-0.3l-1.7-1.6&#10;&#9;&#9;C662.7,355.7,664.4,354.6,666.1,353.6z M660.2,357.6l1.8,1.7l0.3-0.3l9.4,8.7l2.4,6.4l-0.2,0c-1,0.2-1.9,1-2.1,2.1l0,0.2l-6.4-2.4&#10;&#9;&#9;l-8.7-9.4l0.3-0.3l-1.7-1.8C656.8,360.8,658.4,359.2,660.2,357.6z M654.5,363.6l1.6,1.7l0.3-0.3l8.2,8.9l-11.3-4.2l0.1-0.4&#10;&#9;&#9;l-2.2-0.8C652.2,366.8,653.3,365.1,654.5,363.6z M650.6,369.6l2.4,0.9l0.1-0.4l12,4.4l5.3,5.7l-1.8,1.6c-0.3,0.2-0.5,0.5-0.6,0.8&#10;&#9;&#9;l-6.4,0.3l-11.6-5.4l0.2-0.4l-2.3-1.1C648.6,373.8,649.5,371.6,650.6,369.6z M647.6,377.2l2.1,1l0.2-0.4l10.9,5.1l-12,0.5l0-0.4&#10;&#9;&#9;l-2.3,0.1C646.6,381.1,647,379.1,647.6,377.2z M646.4,392.5l2.3,0.1l0-0.4l12,0.5l-10.9,5.1l-0.2-0.4l-2.1,1&#10;&#9;&#9;C647,396.5,646.6,394.5,646.4,392.5z M647.9,399.5l2.3-1.1l-0.2-0.4l11.6-5.4l6.4,0.3c0.1,0.3,0.3,0.6,0.6,0.8l1.8,1.6l-5.3,5.7&#10;&#9;&#9;l-12,4.4l-0.1-0.4l-2.4,0.9C649.5,403.9,648.6,401.8,647.9,399.5z M651.2,407.1l2.2-0.8l-0.1-0.4l11.3-4.2l-8.2,8.9l-0.3-0.3&#10;&#9;&#9;l-1.6,1.7C653.3,410.5,652.2,408.8,651.2,407.1z M655.3,413l1.7-1.8l-0.3-0.3l8.7-9.4l6.4-2.4l0,0.2c0.2,1,1,1.9,2.1,2.1l0.2,0&#10;&#9;&#9;l-2.4,6.4l-9.4,8.7l-0.3-0.3l-1.8,1.7C658.4,416.4,656.8,414.8,655.3,413z M661.2,418.7l1.7-1.6l-0.3-0.3l8.9-8.2l-4.2,11.3&#10;&#9;&#9;l-0.4-0.1l-0.8,2.2C664.4,421,662.7,419.9,661.2,418.7z M667.2,422.6l0.9-2.4l-0.4-0.1l4.4-12l5.7-5.3l1.6,1.8&#10;&#9;&#9;c0.2,0.3,0.5,0.5,0.8,0.6l0.3,6.4l-5.4,11.6l-0.4-0.2l-1.1,2.3C671.4,424.6,669.2,423.7,667.2,422.6z M674.8,425.6l1-2.1l-0.4-0.2&#10;&#9;&#9;l5.1-10.9l0.5,12l-0.4,0l0.1,2.3C678.7,426.5,676.7,426.1,674.8,425.6z M685.4,427.1c-1.2,0-2.4-0.1-3.5-0.2l-0.1-2.5l-0.4,0&#10;&#9;&#9;l-0.5-12.8l3.2-6.9l0.5-0.2c0.5-0.2,1.1-0.2,1.7,0l0.5,0.2l3.2,6.9l-0.5,12.8l-0.4,0l-0.1,2.5C687.7,427,686.6,427.1,685.4,427.1z&#10;&#9;&#9; M690.1,426.8l0.1-2.3l-0.4,0l0.5-12l5.1,10.9l-0.4,0.2l1,2.1C694.1,426.1,692.1,426.5,690.1,426.8z M697.1,425.3l-1.1-2.3&#10;&#9;&#9;l-0.4,0.2l-5.4-11.6l0.3-6.4c0.3-0.1,0.6-0.3,0.8-0.6l1.6-1.8l5.7,5.3l4.4,12l-0.4,0.1l0.9,2.4&#10;&#9;&#9;C701.5,423.7,699.4,424.6,697.1,425.3z M704.7,422l-0.8-2.2l-0.4,0.1l-4.2-11.3l8.9,8.2l-0.3,0.3l1.7,1.6&#10;&#9;&#9;C708.1,419.9,706.4,421,704.7,422z M710.6,417.9l-1.8-1.7l-0.3,0.3l-9.4-8.7l-2.4-6.4l0.2,0c1-0.2,1.9-1,2.1-2.1l0-0.2l6.4,2.4&#10;&#9;&#9;l8.7,9.4l-0.3,0.3l1.7,1.8C714,414.8,712.4,416.4,710.6,417.9z M716.3,412l-1.6-1.7l-0.3,0.3l-8.2-8.9l11.3,4.2l-0.1,0.4l2.2,0.8&#10;&#9;&#9;C718.6,408.8,717.5,410.5,716.3,412z M720.2,406l-2.4-0.9l-0.1,0.4l-12-4.4l-5.3-5.7l1.8-1.6c0.3-0.2,0.5-0.5,0.6-0.8l6.4-0.3&#10;&#9;&#9;l11.6,5.4l-0.2,0.4l2.3,1.1C722.2,401.8,721.3,403.9,720.2,406z M723.2,398.4l-2.1-1l-0.2,0.4l-10.9-5.1l12-0.5l0,0.4l2.3-0.1&#10;&#9;&#9;C724.1,394.5,723.7,396.5,723.2,398.4z M724.4,383.1L722,383l0,0.4l-12-0.5l10.9-5.1l0.2,0.4l2.1-1&#10;&#9;&#9;C723.7,379.1,724.1,381.1,724.4,383.1z M722.9,376.1l-2.3,1.1l0.2,0.4l-11.6,5.4l-6.4-0.3c-0.1-0.3-0.3-0.6-0.6-0.8l-1.8-1.6&#10;&#9;&#9;l5.3-5.7l12-4.4l0.1,0.4l2.4-0.9C721.3,371.6,722.2,373.8,722.9,376.1z M719.6,368.5l-2.2,0.8l0.1,0.4l-11.3,4.2l8.2-8.9l0.3,0.3&#10;&#9;&#9;l1.6-1.7C717.5,365.1,718.6,366.8,719.6,368.5z M772.2,361.4c-1.6,1.7-2.3,1.9-3.2,1.8c-0.9-0.1-1-0.1-0.9-3.4&#10;&#9;&#9;c0.1-3.3,3.2-6.6,3.2-6.6l2.5,6.6C773.8,359.7,773.8,359.7,772.2,361.4z M952.6,391.5l-11.8,0.5l-3.4-1.6c0-0.3-0.1-0.6-0.3-0.8&#10;&#9;&#9;c-0.2-0.2-0.4-0.3-0.6-0.4c0.2-0.1,0.5-0.2,0.6-0.4c0.3-0.3,0.4-0.7,0.4-1.1l0,0c0-0.4-0.2-0.8-0.5-1c-0.1-0.1-0.3-0.2-0.4-0.2&#10;&#9;&#9;l0.3-0.2l-0.1-0.1c0.1-0.1,0.2-0.1,0.2-0.2c0.2-0.2,0.3-0.5,0.3-0.7l3.5-1.6l11.8,0.5l0,0.4l2.3,0.1c0.1,1,0.1,2.1,0.1,3.2&#10;&#9;&#9;c0,1.1-0.1,2.1-0.1,3.2l-2.3,0.1L952.6,391.5z M934.9,394.4C934.9,394.4,934.9,394.4,934.9,394.4c-0.2,0-0.5,0-0.7,0.1l-0.3-0.4&#10;&#9;&#9;l0.6-0.1C934.6,394.2,934.8,394.3,934.9,394.4z M932.5,399.1c-0.4-0.2-1-0.2-1.3,0l-0.1-0.5l1.3,0.2&#10;&#9;&#9;C932.4,399,932.4,399,932.5,399.1z M930.7,401L930.7,401c-0.2-0.2-0.5-0.3-0.8-0.3l-0.1-0.8l0.7,0.2&#10;&#9;&#9;C930.5,400.4,930.5,400.7,930.7,401z M906.7,401.9c-0.6-0.2-1.2,0-1.6,0.5c0-0.2,0-0.5-0.1-0.7c-0.1-0.3-0.4-0.6-0.8-0.8&#10;&#9;&#9;c-0.3-0.2-0.7-0.2-1.1,0c-0.2,0.1-0.4,0.3-0.6,0.5c0-0.2,0-0.5-0.1-0.7c-0.1-0.3-0.4-0.6-0.7-0.7l3-1.1l0.9-0.1l-0.4,1.7l1.7-0.4&#10;&#9;&#9;l-0.3,1.7l1.6-0.6l0,0.1l-0.7,1.9C907.5,402.5,907.2,402.1,906.7,401.9z M899.9,399.6c-0.2-0.3-0.4-0.6-0.8-0.7&#10;&#9;&#9;c-0.4-0.1-0.7-0.1-1.1,0c-0.2,0.1-0.4,0.3-0.6,0.5c0-0.2,0-0.5-0.1-0.7c-0.2-0.3-0.4-0.6-0.8-0.7c-0.4-0.1-0.7-0.1-1.1,0&#10;&#9;&#9;c-0.2,0.1-0.4,0.3-0.6,0.5c0-0.2,0-0.5-0.1-0.7c-0.2-0.3-0.4-0.6-0.8-0.7c-0.4-0.1-0.7-0.1-1.1,0.1c-0.2,0.1-0.4,0.3-0.6,0.5&#10;&#9;&#9;c0-0.2,0-0.5-0.1-0.7c-0.2-0.3-0.4-0.6-0.8-0.7c-0.4-0.1-0.7-0.1-1.1,0.1c-0.2,0.1-0.4,0.3-0.6,0.5c0-0.2,0-0.5-0.1-0.7&#10;&#9;&#9;c0,0,0-0.1-0.1-0.1l7.5-3.5l4.9,0.2l-1.1,1.4l1.7,0.3l-0.9,1.5l1.8,0.1l-0.8,1.6l0,0l-2.4,2.6l-0.3,0.1&#10;&#9;&#9;C900,399.9,900,399.8,899.9,399.6z M888.9,395.2c-0.4-0.1-0.7-0.1-1.1,0.1c-0.2,0.1-0.4,0.3-0.6,0.5c0-0.2,0-0.5-0.1-0.7&#10;&#9;&#9;c-0.2-0.3-0.5-0.6-0.8-0.7c-0.4-0.1-0.7-0.1-1.1,0.1c-0.2,0.1-0.4,0.3-0.6,0.5c0-0.2,0-0.5-0.1-0.7c-0.2-0.3-0.5-0.6-0.8-0.7&#10;&#9;&#9;c-0.1,0-0.3-0.1-0.4-0.1c-0.1-0.4-0.1-0.8-0.2-1.2l2.1,0.1l0-0.4l11,0.4l-6.9,3.2C889.2,395.4,889.1,395.3,888.9,395.2z M887,396.6&#10;&#9;&#9;l-0.2,0.1c0.1-0.1,0.2-0.2,0.2-0.3l0,0C887,396.5,887,396.5,887,396.6z M885.3,396.9l-1.1,0.5c-0.1-0.5-0.2-0.9-0.4-1.4&#10;&#9;&#9;c0.2-0.1,0.5-0.3,0.6-0.5l0,0C884.4,396.1,884.7,396.7,885.3,396.9z M903.6,369c0.4,0,0.7-0.1,1-0.4c0.2-0.2,0.3-0.4,0.4-0.6l0,0&#10;&#9;&#9;c0.1,0.2,0.2,0.4,0.3,0.6c0.2,0.3,0.5,0.4,0.8,0.5l0.3,0.3l1.4,3.8l-1.2-0.4l0.3,1.7l-1.7-0.4l0.4,1.7l-1.7-0.3l0.4,1.1l-3.7-1.4&#10;&#9;&#9;l-6.9-7.5c0.1-0.1,0.2-0.3,0.3-0.5c0,0.3,0.1,0.5,0.3,0.7c0.3,0.3,0.6,0.5,1,0.5c0,0,0.1,0,0.1,0c0.3,0,0.7-0.1,0.9-0.4&#10;&#9;&#9;c0.2-0.2,0.3-0.4,0.4-0.6c0,0.3,0.2,0.5,0.3,0.7c0.3,0.3,0.6,0.5,1,0.5c0,0,0.1,0,0.1,0c0.3,0,0.7-0.1,0.9-0.4&#10;&#9;&#9;c0.2-0.2,0.3-0.4,0.4-0.6c0,0.3,0.2,0.5,0.3,0.7c0.3,0.3,0.6,0.5,1,0.5c0,0,0.1,0,0.1,0c0.4,0,0.7-0.1,1-0.4&#10;&#9;&#9;c0.2-0.2,0.3-0.4,0.4-0.6c0,0.3,0.2,0.5,0.3,0.7C902.8,368.8,903.1,369,903.6,369C903.5,369,903.5,369,903.6,369z M924,370.7&#10;&#9;&#9;l-0.3,0.2l0-0.4c0.1-0.1,0.2-0.2,0.3-0.3l0,0C923.9,370.4,923.9,370.5,924,370.7z M937.3,384.8c0-0.4-0.2-0.7-0.5-0.9&#10;&#9;&#9;c-0.2-0.2-0.4-0.2-0.7-0.3c0.1,0,0.2-0.1,0.3-0.2l3.6,0.1L937.3,384.8z M935.7,389.1L935.7,389.1c0,0-0.1,0-0.1,0l-0.2-0.2l0,0&#10;&#9;&#9;C935.5,389,935.6,389.1,935.7,389.1z M933.5,396.3c0.1,0.2,0.2,0.4,0.4,0.6c-0.1,0-0.2,0-0.2,0l-0.5-1.1l0.3,0.3&#10;&#9;&#9;C933.5,396.2,933.5,396.2,933.5,396.3z M932.3,397.7l-0.1-0.4l0.4,0c-0.1,0.1-0.1,0.1-0.2,0.2C932.4,397.6,932.3,397.6,932.3,397.7&#10;&#9;&#9;z M908.1,402.8l0.2-0.4l0,0.4C908.1,402.8,908.1,402.8,908.1,402.8z M909.1,398.6c-0.4-0.3-0.8-0.7-1.1-1l1.8-0.7L909.1,398.6&#10;&#9;&#9;C909.2,398.6,909.1,398.6,909.1,398.6z M901.1,399.7l2.2-2.4l1.2,0l-0.5,1.4L901.1,399.7z M905.7,394.7l1.3-1.5&#10;&#9;&#9;c1.3,0.2,2.5,0.5,3.7,0.7c0,0,0,0.1,0,0.1l0,0.2l-0.8,2.2l-2.3,0.8C907,396.5,906.3,395.6,905.7,394.7z M883,391&#10;&#9;&#9;c-0.1-0.8-0.1-1.6-0.1-2.4c4.3,0.8,9.7,1.8,15.2,2.9l-1,0.5l-11.8-0.5l0-0.4L883,391z M887,371.1l2.2,0.8l0.1-0.4l11,4.1l2.8,3.1&#10;&#9;&#9;l-1.4,0.1l0.9,1.5l-0.9,0.2c-5.6-1.7-11.5-3.5-16.6-5.2C885.6,373.8,886.3,372.4,887,371.1z M913.1,373.5c0.3-0.1,0.7-0.2,1-0.3&#10;&#9;&#9;l-0.1,2.7l0,0l-1.5-1.4C912.5,374.1,912.7,373.7,913.1,373.5z M914.6,369.6c0.2,0,0.4-0.1,0.5-0.1l-0.4,1l-0.2-0.1L914.6,369.6z&#10;&#9;&#9; M917.5,372.6l1.3,2.7l-1.1,2.5c-0.5-0.1-1-0.3-1.4-0.6l-1.8-1.1l0.1-3C915.5,372.8,916.4,372.7,917.5,372.6z M932.5,376.3&#10;&#9;&#9;c0,0-0.1,0.1-0.1,0.1L932.5,376.3C932.5,376.3,932.5,376.3,932.5,376.3z M928.4,402.5C928.4,402.5,928.4,402.5,928.4,402.5&#10;&#9;&#9;C928.4,402.5,928.4,402.5,928.4,402.5L928.4,402.5z M927.5,398.6c-0.6,0.5-1.4,0.1-1.5-0.7l-0.1-1.8l1.6,0.6l0.5,1.4&#10;&#9;&#9;C927.9,398.3,927.7,398.4,927.5,398.6z M923.5,399.4l-0.1,1.6c-1.1,0.4-2.3,0.7-3.6,0.8l-0.7-1.5l1.4-3l2,1.3L923.5,399.4z&#10;&#9;&#9; M918,401.8c-1.2,0-2.4-0.2-3.5-0.5l-0.1-2l2.8-2.5l1.6,3.4L918,401.8z M928,384.1c-0.5-0.3-0.9-0.6-1.3-1.1l3.2,0.1l-1.2,1.3&#10;&#9;&#9;L928,384.1z M925.9,380.3l0-0.5l1.5-0.6l-1.1,3C926,381.7,925.8,381,925.9,380.3z M925.9,394.1c0-0.4,0-0.8,0.1-1.2l0.2,0l1.2,3.3&#10;&#9;&#9;l-1.5-0.5L925.9,394.1z M926.3,392.1c0.4-0.7,1-1.4,1.8-1.8l0,0l1.9,2.1l-3.5,0.1L926.3,392.1z M932.8,384.9&#10;&#9;&#9;c0.1,0.7-0.7,1.3-1.3,0.9l-2.3-1.2l1.4-1.5l1.9,0.1C932.6,383.8,932.7,384.4,932.8,384.9z M930.9,382.8l1-1.1&#10;&#9;&#9;c0.2,0.4,0.3,0.8,0.4,1.2L930.9,382.8z M930.3,382.8l-3.8-0.2l1.3-3.5l2.1-0.8c0.7,0.9,1.3,1.9,1.7,3L930.3,382.8z M928.1,378.7&#10;&#9;&#9;l0.6-1.7c0.4,0.4,0.7,0.7,1,1.1L928.1,378.7z M927.6,378.8l-1.7,0.6l0.2-2.9c0-0.7,0.9-1.1,1.5-0.7c0.3,0.2,0.6,0.5,0.9,0.8&#10;&#9;&#9;L927.6,378.8z M918,377.9l1-2.1l0.8,1.8C919.2,377.8,918.6,377.9,918,377.9z M910.7,379.4l0,0.7l-0.3-0.8L910.7,379.4z&#10;&#9;&#9; M910.3,378.8l-1.1-3c0.6-0.4,1.4,0,1.4,0.7l0.1,2.5L910.3,378.8z M904.9,381.4c0.1-0.2,0.2-0.4,0.3-0.5l0.8,0.9&#10;&#9;&#9;C905.6,381.6,905.3,381.5,904.9,381.4z M910.7,396.2l-0.2,0.1l0.2-0.7L910.7,396.2z M916.1,397.2&#10;&#9;&#9;C916.2,397.2,916.2,397.1,916.1,397.2l-1.8,1.7l0-0.5L916.1,397.2z M917.5,396.6c0.9-0.2,1.9-0.1,2.7,0.4l-1.3,2.8L917.5,396.6z&#10;&#9;&#9; M926.6,392.9l3.8-0.2l1,1.1c-0.6,1.1-1.3,2.2-2.1,3.1l-1.4-0.5L926.6,392.9z M928.4,390.1l3-1.5c0.7-0.3,1.4,0.2,1.3,0.9&#10;&#9;&#9;c-0.2,1-0.4,1.9-0.7,2.8l-1.5,0.1L928.4,390.1z M935.4,383.8L935.4,383.8C935.3,383.7,935.4,383.8,935.4,383.8&#10;&#9;&#9;C935.4,383.8,935.4,383.8,935.4,383.8z M933.5,378.7c0.1,0,0.2,0,0.3,0c0,0,0,0,0,0.1l-0.7,0l0,0&#10;&#9;&#9;C933.3,378.7,933.4,378.7,933.5,378.7z M928.6,373.3l-0.3,0.1l0-0.5c0.1-0.1,0.2-0.1,0.3-0.2C928.7,372.8,928.6,373,928.6,373.3z&#10;&#9;&#9; M923.8,375.1l-0.1-1.4C924.2,374,924.3,374.7,923.8,375.1z M923.5,375.3l-2.9,1.9c-0.1,0.1-0.3,0.1-0.4,0.2l-1-2.1l1.2-2.6&#10;&#9;&#9;c1,0.1,2.1,0.4,3,0.8L923.5,375.3z M920,372.7l-1,2.2l-1.1-2.3c0.1,0,0.3,0,0.4,0C918.9,372.6,919.4,372.6,920,372.7z M908.3,373.3&#10;&#9;&#9;L907,370l2.5,2.3l-1.3-0.7L908.3,373.3z M908.9,376.1l1,2.6l-2.6-1C907.7,377.1,908.3,376.6,908.9,376.1z M910,379.1l0.8,2.1&#10;&#9;&#9;c-0.1,0.5-0.3,1.1-0.6,1.5l-0.8,0c-0.9-0.3-1.7-0.5-2.7-0.8l-1.4-1.5c0.5-0.9,1-1.7,1.6-2.4L910,379.1z M904.5,377.1l-1.8-0.1&#10;&#9;&#9;l0.6,1.2l-2.2-2.4L904.5,377.1L904.5,377.1z M898.7,391.6c0.6,0.1,1.2,0.2,1.7,0.3l-0.1,0.1l0.1,0l-2.6-0.1L898.7,391.6z&#10;&#9;&#9; M906.6,393.1l-1.1,1.2c-0.3-0.5-0.5-1-0.7-1.5C905.4,392.9,906,393,906.6,393.1z M910.3,396.7l0.4-0.1l-0.1,1.3&#10;&#9;&#9;c0,0.6-0.5,0.9-1,0.9L910.3,396.7z M912.9,399.3l1-0.7l0,0.6l-1.4,1.3C912.4,400.1,912.5,399.5,912.9,399.3z M914,399.7l0.1,1.5&#10;&#9;&#9;c-0.3-0.1-0.7-0.2-1-0.3c-0.1,0-0.1-0.1-0.2-0.1L914,399.7z M918.9,400.7l0.5,1.1c-0.3,0-0.7,0-1,0L918.9,400.7z M923.8,400.7l0-1&#10;&#9;&#9;l0.3,0.2C924.2,400.2,924.1,400.5,923.8,400.7z M928.4,401.8c0,0.1,0,0.1,0,0.2l0-0.9l0.4,0.1C928.6,401.4,928.5,401.6,928.4,401.8&#10;&#9;&#9;z M928.4,397.8l-0.3-0.9l0.9,0.3C928.8,397.4,928.6,397.6,928.4,397.8z M931.6,393.5l-0.7-0.7l1,0&#10;&#9;&#9;C931.8,393,931.7,393.2,931.6,393.5z M934.5,378.3C934.5,378.3,934.5,378.3,934.5,378.3c0.2-0.2,0.4-0.4,0.4-0.6l0,0&#10;&#9;&#9;c0.1-0.3,0.1-0.7-0.1-1.1l1.9-0.7L934.5,378.3z M929.9,371.7c-0.3,0-0.5,0.2-0.7,0.3c0.1-0.2,0.1-0.4,0.1-0.5l1.6-1.5l-0.6,1.7&#10;&#9;&#9;C930.1,371.7,930,371.7,929.9,371.7z M923.2,368.1L923.2,368.1c-0.2-0.1-0.4-0.1-0.6,0l0.6-1.2L923.2,368.1&#10;&#9;&#9;C923.2,368.1,923.2,368.1,923.2,368.1z M918.3,370.1l-0.3-0.5c0.3-0.2,0.5-0.4,0.6-0.7l0,0c0,0.2,0.1,0.3,0.1,0.5L918.3,370.1z&#10;&#9;&#9; M916.7,369.9l-0.2-0.4c0.1,0.1,0.2,0.1,0.3,0.2L916.7,369.9z M916.1,369.6l-0.5-0.5c0,0,0.1-0.1,0.1-0.2L916.1,369.6z&#10;&#9;&#9; M914.2,369.9l-0.7-0.7l-0.5,1.7l-1.4-1.1l-0.3,1.7l-1.5-0.9l-0.1,1.3l-3.1-2.8l0-0.1c0.2-0.1,0.4-0.2,0.6-0.3&#10;&#9;&#9;c0.2-0.2,0.3-0.4,0.4-0.6c0,0.3,0.2,0.5,0.3,0.7c0.3,0.3,0.6,0.5,1,0.5c0,0,0,0,0.1,0c0.4,0,0.7-0.1,1-0.4c0.2-0.2,0.3-0.4,0.4-0.6&#10;&#9;&#9;c0,0.2,0.2,0.5,0.3,0.7c0.3,0.3,0.6,0.5,1,0.5c0,0,0,0,0.1,0c0.6,0,1.2-0.4,1.4-1l0,0c0.1,0.5,0.5,1,1,1.1L914.2,369.9z&#10;&#9;&#9; M889.7,368.1c0,0,0.1,0,0.1,0c0.3,0,0.7-0.1,0.9-0.3c0.2-0.2,0.3-0.4,0.4-0.6c0,0.3,0.1,0.5,0.3,0.7c0.2,0.3,0.6,0.5,1,0.5&#10;&#9;&#9;c0,0,0.1,0,0.1,0c0.3,0,0.6-0.1,0.8-0.3l6.4,6.9l-10.3-3.8l0.1-0.4l-2-0.7c0.4-0.8,0.9-1.5,1.4-2.3&#10;&#9;&#9;C889.1,367.9,889.4,368,889.7,368.1z M891.2,366.3L891.2,366.3c0,0.1,0,0.1,0,0.1l0,0C891.2,366.3,891.2,366.3,891.2,366.3z&#10;&#9;&#9; M907.4,404.5c0,0.1,0,0.1,0.1,0.2c0.1,0.1,0.1,0.2,0.2,0.3l-0.7,0.6L907.4,404.5z M909.1,402.7L909.1,402.7c-0.2-0.1-0.4,0-0.6,0&#10;&#9;&#9;l1.3-0.6l0.1,1l-0.1,0.1C909.6,402.9,909.4,402.7,909.1,402.7z M911.4,402.8l0.1,0.4c-0.5,0-1,0.3-1.3,0.8l0,0c0-0.1,0-0.2-0.1-0.3&#10;&#9;&#9;L911.4,402.8z M913,403.5l0.1,0.5c-0.2,0.1-0.3,0.3-0.4,0.5c0,0,0,0,0,0c0-0.2-0.1-0.4-0.2-0.6L913,403.5z M915,406&#10;&#9;&#9;c0.2-0.2,0.3-0.3,0.4-0.6l0,0.1l0,0c0.1,0.2,0.1,0.4,0.3,0.5c0.1,0.1,0.1,0.1,0.2,0.2l-1.2,2.5l-0.1-2.6&#10;&#9;&#9;C914.8,406.2,914.9,406.1,915,406z M918.3,404.3L918.3,404.3c-0.1,0.2-0.2,0.3-0.2,0.5c0,0,0-0.1-0.1-0.1L918.3,404.3z&#10;&#9;&#9; M922.1,406.3c0.1,0,0.2,0,0.2,0c0.3,0,0.7-0.2,0.9-0.5l-0.1,3l-1.2-2.5C922,406.3,922.1,406.3,922.1,406.3z M925.3,402.8l0.7,0.5&#10;&#9;&#9;c0,0.1,0,0.2,0,0.3c-0.1-0.2-0.3-0.4-0.5-0.5l0,0c-0.1,0-0.1-0.1-0.2-0.1L925.3,402.8z M928.8,403.1c0.2,0.2,0.4,0.3,0.6,0.4&#10;&#9;&#9;c0.1,0,0.2,0,0.3,0c0.1,0,0.2,0,0.4,0l0.8,2.1l-2.1-1.9C928.8,403.5,928.8,403.3,928.8,403.1z M935,397.8c0,0,0-0.1,0-0.1l1.8,2&#10;&#9;&#9;l-2-0.7C935,398.6,935.1,398.2,935,397.8z M936.5,392.1c-0.1-0.1-0.2-0.2-0.3-0.2c0.3,0,0.5-0.1,0.7-0.3l0,0&#10;&#9;&#9;c0.2-0.2,0.4-0.5,0.5-0.8l2.6,1.2L936.5,392.1z M952.6,383.3l0,0.4l-11-0.4l10-4.6l0.2,0.4l1.9-0.9c0.5,1.7,0.8,3.5,1,5.3&#10;&#9;&#9;L952.6,383.3z M953.4,377l-2.1,1l0.2,0.4l-10.7,4.9l-4-0.2c0.2-0.3,0.3-0.7,0.2-1.1c-0.1-0.4-0.3-0.7-0.6-0.9&#10;&#9;&#9;c-0.2-0.1-0.5-0.2-0.7-0.2c0.2-0.1,0.4-0.3,0.5-0.6c0.2-0.4,0.2-0.8,0-1.1c-0.1-0.2-0.2-0.4-0.3-0.5c-0.1-0.1-0.3-0.2-0.5-0.3&#10;&#9;&#9;c-0.1,0-0.1,0-0.2-0.1l2.5-2.7l11-4.1l0.1,0.4l2.2-0.8C951.9,373,952.7,374.9,953.4,377z M950.3,370l-2,0.7l0.1,0.4l-10.3,3.8&#10;&#9;&#9;l7.5-8.1l0.3,0.3l1.4-1.6C948.4,367,949.4,368.5,950.3,370z M946.6,364.6l-1.6,1.7l0.3,0.3l-8,8.7l-2.7,1c-0.2-0.2-0.4-0.3-0.7-0.4&#10;&#9;&#9;c-0.3-0.1-0.5,0-0.8,0.1c0.2-0.2,0.3-0.4,0.3-0.6c0.1-0.4-0.1-0.8-0.3-1.2l0,0c-0.3-0.3-0.6-0.5-1-0.5c-0.3,0-0.5,0.1-0.7,0.2&#10;&#9;&#9;c0.1-0.2,0.2-0.5,0.2-0.8c0-0.4-0.2-0.8-0.5-1c-0.1-0.1-0.2-0.2-0.4-0.2l0.9-2.4l8.7-8l0.3,0.3l1.7-1.6&#10;&#9;&#9;C943.7,361.5,945.2,363,946.6,364.6z M941.2,359.4l-1.6,1.4l0.3,0.3l-8.1,7.5l3.8-10.3l0.4,0.1l0.7-2&#10;&#9;&#9;C938.2,357.3,939.7,358.3,941.2,359.4z M935.6,355.8l-0.8,2.2l0.4,0.1l-4.1,11l-2,1.8c-0.1-0.3-0.3-0.5-0.6-0.7l0,0&#10;&#9;&#9;c-0.4-0.2-0.8-0.2-1.1-0.1c-0.3,0.1-0.5,0.2-0.6,0.4c0.1-0.2,0-0.5,0-0.8c-0.1-0.4-0.4-0.7-0.8-0.8c-0.4-0.2-0.8-0.2-1.1,0&#10;&#9;&#9;c-0.2,0.1-0.4,0.3-0.6,0.5c0-0.2,0-0.5-0.1-0.7c-0.1-0.2-0.3-0.4-0.5-0.5l-0.1-2.3l4.9-10.7l0.4,0.2l1-2.1&#10;&#9;&#9;C931.8,354,933.8,354.8,935.6,355.8z M928.6,353l-0.9,1.9l0.4,0.2l-4.6,10l-0.4-11l0.4,0l-0.1-2.1&#10;&#9;&#9;C925.1,352.2,926.9,352.6,928.6,353z M918.9,351.7c1.1,0,2.1,0.1,3.2,0.1l0.1,2.3l0.4,0l0.5,11.8l-1.1,2.3&#10;&#9;&#9;c-0.2,0.1-0.4,0.3-0.5,0.5c0-0.3-0.1-0.5-0.2-0.7c-0.2-0.3-0.5-0.6-0.9-0.6c-0.4-0.1-0.8,0-1.1,0.2c-0.2,0.2-0.4,0.4-0.5,0.6&#10;&#9;&#9;c0-0.3-0.1-0.5-0.3-0.7c-0.2-0.3-0.6-0.5-1-0.6c-0.4-0.1-0.8,0.1-1.1,0.3c-0.2,0.2-0.4,0.4-0.4,0.6c0-0.2-0.1-0.5-0.3-0.7&#10;&#9;&#9;c-0.1-0.2-0.3-0.3-0.5-0.4l-0.4-0.9l0.5-11.8l0.4,0l0.1-2.3C916.8,351.8,917.9,351.7,918.9,351.7z M914.6,352l-0.1,2.1l0.4,0&#10;&#9;&#9;l-0.4,11l-4.6-10l0.4-0.2l-0.9-1.9C911,352.6,912.8,352.2,914.6,352z M908.1,353.4l1,2.1l0.4-0.2l4.9,10.7l0,0.7&#10;&#9;&#9;c-0.3,0-0.5,0.2-0.7,0.3c-0.2,0.2-0.3,0.4-0.4,0.6c0-0.2-0.2-0.5-0.3-0.7c-0.3-0.3-0.6-0.5-1-0.5c0,0,0,0-0.1,0&#10;&#9;&#9;c-0.6,0-1.2,0.4-1.4,1l0,0c-0.1-0.6-0.7-1.1-1.3-1.1c0,0,0,0-0.1,0c-0.6,0-1.2,0.4-1.4,1h0c-0.1-0.6-0.7-1.1-1.3-1.2h0&#10;&#9;&#9;c0,0,0,0-0.1,0c-0.2,0-0.4,0.1-0.6,0.1l-3-8.3l0.4-0.1l-0.8-2.2C904.1,354.8,906.1,354,908.1,353.4z M901.2,356.4l0.7,2l0.4-0.1&#10;&#9;&#9;l3.1,8.4c-0.2,0.2-0.3,0.4-0.4,0.6h0c-0.1-0.6-0.6-1.1-1.3-1.2c0,0-0.1,0-0.1,0c-0.1,0-0.1,0-0.1,0l-5.4-5l0.3-0.3l-1.6-1.4&#10;&#9;&#9;C898.1,358.3,899.6,357.3,901.2,356.4z M895.8,360.1l1.7,1.6l0.3-0.3l5.2,4.8c-0.4,0.2-0.6,0.5-0.8,0.9l0,0&#10;&#9;&#9;c-0.1-0.6-0.6-1.1-1.3-1.2c-0.7,0-1.2,0.4-1.4,1h0c-0.1-0.6-0.6-1.1-1.3-1.2c-0.7,0-1.2,0.4-1.4,1l0,0c-0.1-0.6-0.6-1.1-1.3-1.2&#10;&#9;&#9;c-0.7,0-1.2,0.4-1.5,1l0,0c-0.1-0.6-0.6-1.1-1.3-1.2h0c-0.2,0-0.4,0-0.6,0.1l-0.8-0.9C892.7,363,894.2,361.5,895.8,360.1z&#10;&#9;&#9; M840.8,358.1c0,0,4.6-3,2.6-5l13.9-6.4c1.7,2.8,5.5,9.6,6.6,15.7c0,0,0,0.1,0,0.1c-0.1-0.6-0.6-1.2-1.2-1.3&#10;&#9;&#9;c-0.7-0.1-1.3,0.3-1.5,0.9c0-0.3-0.1-0.5-0.3-0.7c-0.2-0.3-0.6-0.5-0.9-0.6c-0.7-0.1-1.3,0.3-1.5,0.8c0,0,0,0,0,0&#10;&#9;&#9;c-0.1-0.6-0.6-1.2-1.2-1.3c-0.4-0.1-0.8,0-1.1,0.3c-0.2,0.2-0.4,0.4-0.5,0.6c-0.1-0.6-0.6-1.2-1.2-1.3c-0.7-0.1-1.3,0.3-1.5,0.9&#10;&#9;&#9;l0,0c-0.1-0.6-0.6-1.2-1.2-1.3c-0.4-0.1-0.8,0-1.1,0.3c-0.2,0.2-0.4,0.4-0.5,0.6c-0.1-0.6-0.6-1.2-1.2-1.3&#10;&#9;&#9;c-0.7-0.1-1.3,0.3-1.5,0.9l0,0c-0.1-0.6-0.6-1.2-1.2-1.3c-0.5-0.1-1,0.1-1.3,0.5L840.8,358.1z M845.6,361.5l0-0.2&#10;&#9;&#9;c0.1,0,0.2,0,0.3,0c0.3,0,0.6-0.1,0.8-0.3c0.2-0.2,0.4-0.4,0.5-0.6c0,0.3,0.1,0.5,0.3,0.7c0.2,0.3,0.6,0.5,0.9,0.6&#10;&#9;&#9;c0.1,0,0.2,0,0.2,0c0.3,0,0.6-0.1,0.8-0.3c0.2-0.2,0.4-0.4,0.5-0.6c0,0.3,0.1,0.5,0.3,0.7c0.2,0.3,0.6,0.5,0.9,0.6&#10;&#9;&#9;c0.1,0,0.2,0,0.2,0c0.3,0,0.6-0.1,0.8-0.3c0.2-0.2,0.4-0.4,0.5-0.6c0.1,0.6,0.6,1.2,1.2,1.3c0.1,0,0.2,0,0.2,0&#10;&#9;&#9;c0.3,0,0.6-0.1,0.8-0.3c0.2-0.2,0.4-0.4,0.5-0.6c0.1,0.6,0.6,1.2,1.2,1.3c0.7,0.1,1.3-0.2,1.5-0.8c0,0,0,0,0,0&#10;&#9;&#9;c0.1,0.6,0.6,1.2,1.2,1.3c0.1,0,0.2,0,0.2,0c0.3,0,0.6-0.1,0.8-0.3c0.2-0.2,0.4-0.4,0.5-0.6c0,0.3,0.1,0.5,0.3,0.7&#10;&#9;&#9;c0.2,0.3,0.6,0.5,0.9,0.6c0.1,0,0.2,0,0.2,0c0.3,0,0.6-0.1,0.8-0.3c0.2-0.2,0.4-0.4,0.5-0.6c0,0.3,0.1,0.5,0.3,0.7&#10;&#9;&#9;c0,0,0.1,0.1,0.1,0.1c0,0.4,0.1,0.7,0.1,1.1L845.6,361.5z M861.7,386.9c-0.2,0.1-0.4,0.3-0.5,0.5c0-0.2-0.1-0.5-0.2-0.7&#10;&#9;&#9;c-0.2-0.3-0.5-0.6-0.9-0.7c-0.4-0.1-0.8-0.1-1.1,0.1c-0.2,0.1-0.4,0.3-0.5,0.5c0-0.3-0.1-0.5-0.2-0.7c-0.2-0.3-0.5-0.6-0.9-0.7&#10;&#9;&#9;c-0.2,0-0.3-0.1-0.5,0c0-0.1-0.1-0.3-0.1-0.4c-0.1-0.2-0.2-0.4-0.2-0.6c0,0,3.2-1.4,3.5-2.4c0,0,1.8,0.8,3.4,1.7l-0.1,2.1&#10;&#9;&#9;c0,0.1,0,0.2,0,0.2c-0.3,0-0.6,0.3-0.6,0.6v0.4c0,0-0.1,0-0.1-0.1C862.5,386.6,862.1,386.7,861.7,386.9z M884.5,398.6l2.1-1&#10;&#9;&#9;l-0.2-0.4l0.6-0.3c0.1,0.4,0.4,0.7,0.9,0.9c0.2,0.1,0.3,0.1,0.5,0.1c0.5,0,0.9-0.2,1.2-0.6l0,0c-0.1,0.6,0.3,1.2,0.9,1.4&#10;&#9;&#9;c0.2,0.1,0.3,0.1,0.5,0.1c0.5,0,0.9-0.2,1.2-0.6c0,0,0,0,0,0c-0.1,0.6,0.3,1.2,0.9,1.4c0.2,0.1,0.3,0.1,0.5,0.1&#10;&#9;&#9;c0.5,0,0.9-0.2,1.2-0.6l0,0c-0.1,0.6,0.3,1.2,0.9,1.4c0.2,0.1,0.3,0.1,0.5,0.1c0.5,0,0.9-0.2,1.2-0.6l0,0c0,0.3,0.1,0.7,0.3,1&#10;&#9;&#9;l-8.2,3l-0.1-0.4l-2.2,0.8C886,402.6,885.2,400.6,884.5,398.6z M887.5,405.5l2-0.7l-0.1-0.4l8.4-3.1c0.1,0.1,0.2,0.1,0.3,0.2&#10;&#9;&#9;c0.2,0.1,0.3,0.1,0.5,0.1c0.1,0,0.1,0,0.2,0l-6.6,7.1l-0.3-0.3l-1.4,1.6C889.4,408.6,888.4,407.1,887.5,405.5z M891.3,410.9&#10;&#9;&#9;l1.6-1.7l-0.3-0.3l7.2-7.8c0,0.6,0.3,1.1,0.9,1.3c0.2,0.1,0.3,0.1,0.5,0.1c0.4,0,0.9-0.2,1.1-0.6l0,0c-0.1,0.6,0.2,1.2,0.8,1.5&#10;&#9;&#9;c0.2,0.1,0.4,0.1,0.5,0.1c0.2,0,0.4,0,0.5-0.1c0.2-0.1,0.5-0.2,0.6-0.4c0,0.2,0,0.5,0.1,0.7c0.1,0.4,0.5,0.6,0.8,0.8&#10;&#9;&#9;c0.2,0.1,0.3,0.1,0.5,0.1c0.2,0,0.4,0,0.6-0.1c0.1-0.1,0.2-0.1,0.3-0.2l-0.7,1.9l-8.6,8l-0.3-0.3l-1.7,1.6&#10;&#9;&#9;C894.2,414.1,892.7,412.6,891.3,410.9z M896.7,416.2l1.6-1.4l-0.3-0.3l8.1-7.5l-3.8,10.3l-0.4-0.1l-0.7,2&#10;&#9;&#9;C899.6,418.3,898.1,417.3,896.7,416.2z M902.3,419.8l0.8-2.2l-0.4-0.1l4.1-11l1.3-1.2c0.1,0.1,0.2,0.1,0.4,0.1&#10;&#9;&#9;c0.1,0,0.3,0.1,0.4,0.1c0.3,0,0.5-0.1,0.7-0.2c0.2-0.1,0.4-0.3,0.5-0.5c0,0.2,0.1,0.5,0.2,0.7c0.2,0.3,0.5,0.5,0.9,0.6&#10;&#9;&#9;c0.1,0,0.2,0,0.3,0c0.3,0,0.6-0.1,0.8-0.3c0.2-0.1,0.4-0.3,0.5-0.6c0,0.2,0.1,0.5,0.3,0.7c0.2,0.3,0.6,0.5,1,0.5c0,0,0.1,0,0.1,0&#10;&#9;&#9;c0.1,0,0.1,0,0.2,0l0.1,3.2l-4.9,10.7l-0.4-0.2l-1,2.1C906.1,421.6,904.1,420.7,902.3,419.8z M909.3,422.5l0.9-1.9l-0.4-0.2l4.6-10&#10;&#9;&#9;l0.4,11l-0.4,0l0.1,2.1C912.8,423.4,911,423,909.3,422.5z M918.9,423.9c-1.1,0-2.1-0.1-3.2-0.1l-0.1-2.3l-0.4,0l-0.5-11.8l1.5-3.2&#10;&#9;&#9;c0.1,0,0.3,0.1,0.4,0.1c0,0,0,0,0,0c0.4,0,0.7-0.1,1-0.4c0.2-0.2,0.3-0.4,0.4-0.6c0.1,0.2,0.2,0.5,0.4,0.6c0.3,0.2,0.6,0.4,0.9,0.4&#10;&#9;&#9;c0,0,0.1,0,0.1,0c0.4,0,0.8-0.2,1-0.5c0.2-0.2,0.3-0.4,0.3-0.7c0.1,0.2,0.2,0.4,0.4,0.6c0,0,0.1,0.1,0.1,0.1l1.7,3.6l-0.5,11.8&#10;&#9;&#9;l-0.4,0l-0.1,2.3C921.1,423.8,920,423.9,918.9,423.9z M923.3,423.6l0.1-2.1l-0.4,0l0.4-11l4.6,10l-0.4,0.2l0.9,1.9&#10;&#9;&#9;C926.9,423,925.1,423.4,923.3,423.6z M929.8,422.2l-1-2.1l-0.4,0.2l-4.9-10.7l0.2-4.5c0.1,0.2,0.2,0.3,0.4,0.4&#10;&#9;&#9;c0.2,0.1,0.5,0.2,0.7,0.2c0.1,0,0.3,0,0.4-0.1c0.4-0.1,0.7-0.4,0.9-0.7c0.1-0.2,0.2-0.5,0.2-0.7c0.1,0.2,0.3,0.4,0.6,0.5&#10;&#9;&#9;c0.2,0.1,0.3,0.1,0.5,0.1c0.2,0,0.4,0,0.6-0.1c0.3-0.1,0.5-0.3,0.7-0.6l2.5,2.3l4.1,11l-0.4,0.1l0.8,2.2&#10;&#9;&#9;C933.8,420.7,931.8,421.6,929.8,422.2z M936.7,419.2l-0.7-2l-0.4,0.1l-3.8-10.3l8.1,7.5l-0.3,0.3l1.6,1.4&#10;&#9;&#9;C939.7,417.3,938.2,418.3,936.7,419.2z M942.1,415.4l-1.7-1.6l-0.3,0.3l-8.7-8l-1.1-2.9c0,0,0.1,0,0.1-0.1c0.3-0.2,0.6-0.6,0.6-1&#10;&#9;&#9;c0-0.3,0-0.5-0.1-0.7c0.2,0.1,0.4,0.2,0.6,0.2c0,0,0.1,0,0.1,0c0.4,0,0.8-0.2,1.1-0.4c0.3-0.3,0.5-0.8,0.4-1.1&#10;&#9;&#9;c0-0.2-0.1-0.4-0.2-0.6c0.2,0.1,0.3,0.1,0.5,0.1c0.1,0,0.2,0,0.3,0c0.1,0,0.4-0.1,0.7-0.3l2.8,1l8,8.7l-0.3,0.3l1.6,1.7&#10;&#9;&#9;C945.2,412.6,943.7,414.1,942.1,415.4z M947.3,410l-1.4-1.6l-0.3,0.3l-7.5-8.1l10.3,3.8l-0.1,0.4l2,0.7&#10;&#9;&#9;C949.4,407.1,948.4,408.6,947.3,410z M950.9,404.5l-2.2-0.8l-0.1,0.4l-11-4.1l-2.6-2.8c0.1,0,0.2,0,0.3-0.1&#10;&#9;&#9;c0.4-0.2,0.7-0.5,0.8-0.8c0.1-0.4,0.1-0.9-0.1-1.2c-0.1-0.2-0.3-0.4-0.5-0.5c0.2,0,0.5-0.1,0.7-0.2c0.3-0.2,0.6-0.6,0.7-1&#10;&#9;&#9;c0.1-0.3,0-0.7-0.1-1l3.9-0.2l10.7,4.9l-0.2,0.4l2.1,1C952.7,400.6,951.9,402.6,950.9,404.5z M953.7,397.4l-1.9-0.9l-0.2,0.4&#10;&#9;&#9;l-10-4.6l11-0.4l0,0.4l2.1-0.1C954.5,394,954.2,395.7,953.7,397.4z" transform="matrix(1, 0, 0, 1, -6.821210263296962e-13, 0)" style="fill: rgb(204, 204, 204); opacity: 1;"/></svg>