<svg width="21" height="37" viewBox="0 0 21 37" fill="none" xmlns="http://www.w3.org/2000/svg">
<path fill-rule="evenodd" clip-rule="evenodd" d="M19.9451 34.4264C19.7376 34.5629 19.4838 34.742 19.2148 34.9311C18.5427 35.4075 17.704 35.9986 17.224 36.184C14.6987 37.16 12.1209 35.226 10.4026 33.4325C8.1359 31.0666 5.92125 27.4663 4.16473 23.2949C2.4059 19.1223 1.28457 14.7993 1.00514 11.1226C0.794778 8.33386 0.974936 4.57644 3.04479 2.51761C3.43801 2.12596 4.30242 1.5949 4.99562 1.16786C5.27274 0.997858 5.53242 0.83639 5.73992 0.699893C6.10817 0.458173 6.53787 0.40887 6.93506 0.562765C7.33224 0.716659 7.6646 1.06123 7.85946 1.52113L10.5083 7.80856C10.7012 8.2696 10.7405 8.8075 10.6176 9.30471C10.4948 9.80193 10.2197 10.218 9.85259 10.4621L8.48509 11.363C8.02896 11.6615 7.66201 12.1365 7.43885 12.7172C7.21568 13.298 7.14823 13.9534 7.24653 14.586C7.84426 18.5393 9.37642 22.1766 11.6444 25.0265C12.0057 25.4853 12.4757 25.7856 12.9844 25.8828C13.493 25.98 14.0131 25.8688 14.4673 25.5658L15.8322 24.6639C16.2005 24.4222 16.6302 24.3729 17.0274 24.5268C17.4245 24.6807 17.7569 25.0252 17.9518 25.4851L20.6007 31.7735C20.7936 32.2344 20.8329 32.7722 20.7101 33.2693C20.5872 33.7665 20.3122 34.1825 19.9451 34.4264Z" fill="white"/>
</svg>
