<svg width="28" height="36" viewBox="0 0 28 36" fill="none" xmlns="http://www.w3.org/2000/svg">
<path d="M13.7641 0C6.17496 0 0 5.94572 0 13.2539C0 15.1601 0.40521 16.9802 1.20377 18.6639C4.64518 25.915 11.2433 33.5706 13.1841 35.7439C13.3295 35.9064 13.5414 36 13.7645 36C13.9876 36 14.1996 35.9064 14.345 35.7439C16.2849 33.5709 22.8831 25.9157 26.3256 18.6639C27.1246 16.9802 27.5294 15.1601 27.5294 13.2539C27.5286 5.94572 21.3537 0 13.7641 0ZM13.7641 20.138C9.82185 20.138 6.61422 17.0495 6.61422 13.2535C6.61422 9.45722 9.82185 6.36868 13.7641 6.36868C17.7064 6.36868 20.914 9.45722 20.914 13.2535C20.9144 17.0495 17.7068 20.138 13.7641 20.138Z" fill="white"/>
</svg>
