<svg width="1920" height="412" viewBox="0 0 1920 412" fill="none" xmlns="http://www.w3.org/2000/svg">
<path d="M-4.19 9.71999H179.435C221.622 9.71999 253.827 18.9483 276.05 37.405C298.65 55.485 309.95 79.9683 309.95 110.855C309.95 130.065 304.677 147.392 294.13 162.835C283.583 177.902 269.647 188.825 252.32 195.605C275.673 201.255 294.13 212.555 307.69 229.505C321.25 246.455 328.03 267.737 328.03 293.35C328.03 328.757 316.165 357.383 292.435 379.23C269.082 401.077 238.572 412 200.905 412H-4.19V9.71999ZM64.74 66.785V177.525H160.79C187.91 177.525 207.873 173.382 220.68 165.095C233.487 156.432 239.89 142.118 239.89 122.155C239.89 99.555 233.11 84.6767 219.55 77.52C206.367 70.3633 187.533 66.785 163.05 66.785H64.74ZM64.74 228.375V354.37H170.395C197.515 354.37 218.797 349.85 234.24 340.81C249.683 331.77 257.405 315.385 257.405 291.655C257.405 278.472 254.957 267.548 250.06 258.885C245.54 249.845 238.76 243.253 229.72 239.11C221.057 234.967 212.017 232.142 202.6 230.635C193.183 229.128 182.072 228.375 169.265 228.375H64.74ZM683.472 9.71999V69.045H463.687V175.83H667.652V232.895H463.687V351.545H686.862V412H393.627V9.71999H683.472ZM749.511 9.71999H939.916C979.843 9.71999 1012.42 18.76 1037.66 36.84C1062.9 54.5433 1075.52 82.7933 1075.52 121.59C1075.52 145.697 1069.68 166.413 1058 183.74C1046.32 200.69 1029.94 212.932 1008.85 220.465C1018.64 222.725 1027.11 226.115 1034.27 230.635C1041.43 235.155 1046.89 240.052 1050.66 245.325C1054.8 250.598 1058.19 257.378 1060.83 265.665C1063.46 273.952 1065.16 281.297 1065.91 287.7C1067.04 293.727 1067.98 301.825 1068.74 311.995C1069.11 314.632 1069.49 319.717 1069.87 327.25C1070.62 334.783 1071 339.868 1071 342.505C1071.37 344.765 1071.75 348.908 1072.13 354.935C1072.88 360.962 1073.44 365.293 1073.82 367.93C1074.2 370.19 1074.76 373.768 1075.52 378.665C1076.65 383.185 1077.59 386.763 1078.34 389.4C1079.09 391.66 1080.04 394.485 1081.17 397.875C1082.3 400.888 1083.61 403.525 1085.12 405.785C1086.63 408.045 1088.32 410.117 1090.21 412H1014.5C1013.37 410.493 1012.24 408.798 1011.11 406.915C1010.35 404.655 1009.6 402.395 1008.85 400.135C1008.09 397.498 1007.53 395.238 1007.15 393.355C1006.77 391.095 1006.21 388.27 1005.46 384.88C1005.08 381.113 1004.7 378.1 1004.33 375.84C1004.33 373.58 1004.14 370.19 1003.76 365.67C1003.38 361.15 1003.01 357.76 1002.63 355.5C1002.63 353.24 1002.44 349.285 1002.07 343.635C1001.69 337.985 1001.5 334.03 1001.5 331.77C999.618 299 992.65 276.588 980.596 264.535C968.92 252.105 946.508 245.89 913.361 245.89H819.571V412H749.511V9.71999ZM819.571 67.35V193.345H912.796C926.356 193.345 937.845 192.592 947.261 191.085C956.678 189.578 966.095 186.942 975.511 183.175C985.305 179.032 992.65 172.44 997.546 163.4C1002.82 154.36 1005.46 142.872 1005.46 128.935C1005.46 116.128 1003.2 105.582 998.676 97.295C994.156 88.6316 987.565 82.2283 978.901 78.085C970.615 73.9416 961.951 71.1166 952.911 69.61C944.248 68.1033 933.89 67.35 921.836 67.35H819.571ZM1147.89 9.71999H1301.01C1328.88 9.71999 1353.37 12.7333 1374.46 18.76C1395.55 24.41 1414.95 35.145 1432.65 50.965C1472.2 86.3716 1491.98 137.41 1491.98 204.08C1491.98 275.27 1473.15 329.698 1435.48 367.365C1418.91 383.938 1400.83 395.615 1381.24 402.395C1362.03 408.798 1336.6 412 1304.96 412H1147.89V9.71999ZM1217.95 69.61V352.675H1301.01C1345.08 352.675 1376.15 339.868 1394.23 314.255C1412.31 288.642 1421.35 253.047 1421.35 207.47C1421.35 164.153 1411.18 130.442 1390.84 106.335C1370.5 81.8517 1339.05 69.61 1296.49 69.61H1217.95ZM1729.1 0.114982C1785.97 0.114982 1832.12 19.7017 1867.52 58.875C1903.31 97.6717 1921.2 148.333 1921.2 210.86C1921.2 273.387 1903.31 324.237 1867.52 363.41C1831.74 402.207 1785.22 421.605 1727.97 421.605C1670.34 421.605 1623.63 402.207 1587.85 363.41C1552.44 324.613 1534.74 273.763 1534.74 210.86C1534.74 149.84 1552.06 99.555 1586.72 60.005C1621.75 20.0783 1669.21 0.114982 1729.1 0.114982ZM1727.97 59.44C1691.05 59.44 1661.49 73.1883 1639.26 100.685C1617.04 127.805 1605.93 164.153 1605.93 209.73C1605.93 256.437 1616.85 293.538 1638.7 321.035C1660.92 348.532 1691.05 362.28 1729.1 362.28C1765.63 362.28 1794.83 348.532 1816.67 321.035C1838.9 293.162 1850.01 256.248 1850.01 210.295C1850.01 164.342 1838.9 127.805 1816.67 100.685C1794.83 73.1883 1765.26 59.44 1727.97 59.44Z" fill="white"/>
</svg>
