<svg width="40" height="45" viewBox="0 0 40 45" fill="none" xmlns="http://www.w3.org/2000/svg">
<path d="M21.1875 38.1537V44.9996H39.4043V33.4764L34.8282 32.3916C33.1728 33.7838 27.9668 37.6893 21.1875 38.1537Z" fill="white"/>
<path d="M18.5508 38.1539C11.7716 37.6895 6.56535 33.7839 4.90993 32.3916L0.333984 33.4764V44.9998H18.5508V38.1539Z" fill="white"/>
<path d="M12.0285 25.6176H27.7098C31.6991 25.6176 34.9447 22.3719 34.9447 18.3826V16.3945H4.79346V18.3826C4.79346 22.3719 8.03909 25.6176 12.0285 25.6176Z" fill="white"/>
<path d="M19.8692 35.5633C26.8525 35.5633 32.4018 31.0123 33.4038 30.1372C34.1766 28.5698 34.6609 26.9125 34.8517 25.1904C33.0526 27.0767 30.5161 28.2538 27.7099 28.2538H12.0286C9.22228 28.2538 6.68576 27.0767 4.88672 25.1904C5.07753 26.9124 5.56181 28.5696 6.33454 30.1371C7.3365 31.0121 12.886 35.5633 19.8692 35.5633Z" fill="white"/>
<path d="M34.8866 13.7571C34.2165 6.05959 27.7378 0 19.8693 0C12.0009 0 5.52213 6.05959 4.85205 13.7571H34.8866ZM15.4219 7.82733H24.3167V10.464H15.4219V7.82733Z" fill="white"/>
</svg>
