<svg width="40" height="40" viewBox="0 0 40 40" fill="none" xmlns="http://www.w3.org/2000/svg">
<path d="M24.5 16C24.4989 16.6627 24.2352 17.298 23.7666 17.7666C23.298 18.2352 22.6627 18.4989 22 18.5H17.5V13.5H22C22.6627 13.5011 23.298 13.7648 23.7666 14.2334C24.2352 14.702 24.4989 15.3373 24.5 16ZM40 20C40 23.9556 38.827 27.8224 36.6294 31.1114C34.4318 34.4004 31.3082 36.9638 27.6537 38.4776C23.9992 39.9913 19.9778 40.3874 16.0982 39.6157C12.2186 38.844 8.65492 36.9392 5.85787 34.1421C3.06082 31.3451 1.15601 27.7814 0.384303 23.9018C-0.387401 20.0222 0.00866568 16.0008 1.52242 12.3463C3.03617 8.69181 5.59962 5.56823 8.8886 3.37061C12.1776 1.17298 16.0444 0 20 0C22.6264 0 25.2272 0.517315 27.6537 1.52241C30.0802 2.5275 32.285 4.00069 34.1421 5.85786C35.9993 7.71503 37.4725 9.91982 38.4776 12.3463C39.4827 14.7728 40 17.3736 40 20ZM27.5 16C27.4989 14.5416 26.9191 13.1433 25.8879 12.1121C24.8567 11.0809 23.4584 10.5011 22 10.5H16C15.6022 10.5 15.2207 10.658 14.9393 10.9393C14.658 11.2206 14.5 11.6022 14.5 12V28C14.5 28.3978 14.658 28.7793 14.9393 29.0607C15.2207 29.342 15.6022 29.5 16 29.5C16.3978 29.5 16.7794 29.342 17.0607 29.0607C17.342 28.7793 17.5 28.3978 17.5 28V21.5H22C23.4584 21.4989 24.8567 20.9191 25.8879 19.8879C26.9191 18.8567 27.4989 17.4584 27.5 16Z" fill="white"/>
</svg>
