<svg width="40" height="39" viewBox="0 0 40 39" fill="none" xmlns="http://www.w3.org/2000/svg">
<path d="M35.4173 7.73047C35.6022 8.59789 35.698 9.49133 35.698 10.4001C35.698 12.942 34.9377 15.4055 33.5337 17.4836C37.1864 16.948 39.9999 13.7941 39.9999 9.995V7.73047H35.4173Z" fill="white"/>
<path d="M14.5557 23.0371H7.70605V23.3178C7.70605 27.3884 10.2364 30.7001 14.307 30.7001H21.9379V30.4194C21.9379 26.3488 18.6262 23.0371 14.5557 23.0371Z" fill="white"/>
<path d="M30.8591 17.2487C32.5243 15.353 33.4324 12.9503 33.4324 10.3999C33.4324 7.59471 32.3323 4.96487 30.3348 2.99495C28.3377 1.02534 25.6941 -0.0408343 22.8851 0.001197C17.1909 0.0803376 12.592 4.77956 12.6332 10.4764C12.6452 12.1401 13.0579 13.7685 13.8202 15.2248L6.68602 15.2396C6.68367 15.2396 6.68156 15.2396 6.67922 15.2396C5.52305 15.2395 4.43578 14.7898 3.61742 13.9727C2.79742 13.1539 2.34586 12.0648 2.34586 10.906H0C0 10.9621 0.000703125 11.0182 0.00203125 11.0739H0V24.2542C0 32.0993 5.60109 38.4816 13.4461 38.4816H23.79C29.5839 38.4816 34.2977 33.7679 34.2977 27.9739C34.2977 26.4244 33.7373 23.9421 33.0712 22.5319L30.8591 17.2487ZM24.2837 33.0463H14.307C8.94289 33.0463 5.36016 28.6823 5.36016 23.3182V20.6917H14.5555C19.9196 20.6917 24.2836 25.0557 24.2836 30.4198V33.0463H24.2837ZM26.9932 10.1356C26.3356 10.1356 25.8488 9.59815 25.8203 8.96268C25.792 8.32925 26.3797 7.78979 26.9932 7.78979C27.6508 7.78979 28.1377 8.32721 28.1661 8.96268C28.1945 9.59612 27.6067 10.1356 26.9932 10.1356Z" fill="white"/>
</svg>
